<?xml version="1.0" encoding="UTF-8" standalone="no"?>
<!-- Created with Inkscape (http://www.inkscape.org/) -->

<svg
   xmlns:dc="http://purl.org/dc/elements/1.1/"
   xmlns:cc="http://creativecommons.org/ns#"
   xmlns:rdf="http://www.w3.org/1999/02/22-rdf-syntax-ns#"
   xmlns:svg="http://www.w3.org/2000/svg"
   xmlns="http://www.w3.org/2000/svg"
   xmlns:sodipodi="http://sodipodi.sourceforge.net/DTD/sodipodi-0.dtd"
   xmlns:inkscape="http://www.inkscape.org/namespaces/inkscape"
   width="210mm"
   height="297mm"
   viewBox="0 0 210 297"
   version="1.1"
   id="svg8"
   inkscape:version="0.92.4 5da689c313, 2019-01-14"
   sodipodi:docname="napisy.svg">
  <defs
     id="defs2">
    <filter
       inkscape:collect="always"
       style="color-interpolation-filters:sRGB"
       id="filter931"
       x="-0.027498009"
       width="1.054996"
       y="-0.15715855"
       height="1.3143171">
      <feGaussianBlur
         inkscape:collect="always"
         stdDeviation="0.82406502"
         id="feGaussianBlur933" />
    </filter>
  </defs>
  <sodipodi:namedview
     id="base"
     pagecolor="#ffffff"
     bordercolor="#666666"
     borderopacity="1.0"
     inkscape:pageopacity="0.0"
     inkscape:pageshadow="2"
     inkscape:zoom="1.4"
     inkscape:cx="355.54396"
     inkscape:cy="805.66559"
     inkscape:document-units="mm"
     inkscape:current-layer="layer1"
     showgrid="false"
     inkscape:window-width="1920"
     inkscape:window-height="1021"
     inkscape:window-x="0"
     inkscape:window-y="0"
     inkscape:window-maximized="1" />
  <metadata
     id="metadata5">
    <rdf:RDF>
      <cc:Work
         rdf:about="">
        <dc:format>image/svg+xml</dc:format>
        <dc:type
           rdf:resource="http://purl.org/dc/dcmitype/StillImage" />
        <dc:title></dc:title>
      </cc:Work>
    </rdf:RDF>
  </metadata>
  <g
     inkscape:label="Layer 1"
     inkscape:groupmode="layer"
     id="layer1">
    <text
       xml:space="preserve"
       style="font-style:normal;font-weight:normal;font-size:8.46666622px;line-height:10;font-family:sans-serif;letter-spacing:0px;word-spacing:0px;fill:#000000;fill-opacity:1;stroke:none;stroke-width:0.26458332"
       x="27.119789"
       y="119.63467"
       id="text817"><tspan
         sodipodi:role="line"
         id="tspan815"
         x="27.119789"
         y="119.63467"
         style="font-style:normal;font-variant:normal;font-weight:normal;font-stretch:normal;font-size:8.46666622px;font-family:Gismonda;-inkscape-font-specification:'Gismonda, Normal';font-variant-ligatures:normal;font-variant-caps:normal;font-variant-numeric:normal;font-feature-settings:normal;text-align:start;writing-mode:lr-tb;text-anchor:start;stroke-width:0.26458332">The Alchemist</tspan></text>
    <text
       xml:space="preserve"
       style="font-style:normal;font-variant:normal;font-weight:normal;font-stretch:normal;font-size:13.93628311px;line-height:10;font-family:Campanile;-inkscape-font-specification:'Campanile, Normal';font-variant-ligatures:normal;font-variant-caps:normal;font-variant-numeric:normal;font-feature-settings:normal;text-align:start;letter-spacing:0px;word-spacing:0px;writing-mode:lr-tb;text-anchor:start;fill:#800f00;fill-opacity:1;stroke:none;stroke-width:0.43550885;filter:url(#filter931)"
       x="117.79508"
       y="94.002525"
       id="text817-5-1"
       transform="skewX(-13.884716)"><tspan
         sodipodi:role="line"
         id="tspan815-2-1"
         x="117.79508"
         y="94.002525"
         style="font-style:normal;font-variant:normal;font-weight:normal;font-stretch:normal;font-size:13.93628311px;font-family:Campanile;-inkscape-font-specification:'Campanile, Normal';font-variant-ligatures:normal;font-variant-caps:normal;font-variant-numeric:normal;font-feature-settings:normal;text-align:start;writing-mode:lr-tb;text-anchor:start;stroke-width:0.43550885;fill:#800f00;fill-opacity:1;">The Alchemist</tspan></text>
    <text
       xml:space="preserve"
       style="font-style:normal;font-variant:normal;font-weight:normal;font-stretch:normal;font-size:13.93628311px;line-height:10;font-family:Campanile;-inkscape-font-specification:'Campanile, Normal';font-variant-ligatures:normal;font-variant-caps:normal;font-variant-numeric:normal;font-feature-settings:normal;text-align:start;letter-spacing:0px;word-spacing:0px;writing-mode:lr-tb;text-anchor:start;fill:#000000;fill-opacity:1;stroke:none;stroke-width:0.43550885"
       x="117.79508"
       y="94.002525"
       id="text817-5"
       transform="skewX(-13.884716)"><tspan
         sodipodi:role="line"
         id="tspan815-2"
         x="117.79508"
         y="94.002525"
         style="font-style:normal;font-variant:normal;font-weight:normal;font-stretch:normal;font-size:13.93628311px;font-family:Campanile;-inkscape-font-specification:'Campanile, Normal';font-variant-ligatures:normal;font-variant-caps:normal;font-variant-numeric:normal;font-feature-settings:normal;text-align:start;writing-mode:lr-tb;text-anchor:start;stroke-width:0.43550885">The Alchemist</tspan></text>
    <text
       xml:space="preserve"
       style="font-style:normal;font-variant:normal;font-weight:normal;font-stretch:normal;font-size:8.46666622px;line-height:10;font-family:Campanile;-inkscape-font-specification:'Campanile, Normal';font-variant-ligatures:normal;font-variant-caps:normal;font-variant-numeric:normal;font-feature-settings:normal;text-align:start;letter-spacing:0px;word-spacing:0px;writing-mode:lr-tb;text-anchor:start;fill:#000000;fill-opacity:1;stroke:none;stroke-width:0.26458332"
       x="68.172684"
       y="68.491013"
       id="text817-5-6"><tspan
         sodipodi:role="line"
         id="tspan815-2-5"
         x="68.172684"
         y="68.491013"
         style="font-style:normal;font-variant:normal;font-weight:normal;font-stretch:normal;font-size:8.46666622px;font-family:Campanile;-inkscape-font-specification:'Campanile, Normal';font-variant-ligatures:normal;font-variant-caps:normal;font-variant-numeric:normal;font-feature-settings:normal;text-align:start;writing-mode:lr-tb;text-anchor:start;stroke-width:0.26458332">The Alchemist</tspan></text>
    <path
       sodipodi:type="inkscape:offset"
       inkscape:radius="-0.23619778"
       inkscape:original="M 118.11523 82.769531 C 118.69127 84.330395 118.98047 85.455055 118.98047 86.142578 L 118.98047 86.28125 C 118.98047 86.327704 118.97413 86.37104 118.96484 86.408203 C 118.91839 86.510403 118.84439 86.560547 118.74219 86.560547 C 118.47275 86.560547 118.33789 86.66717 118.33789 86.880859 C 118.33789 87.122422 118.47275 87.244141 118.74219 87.244141 C 118.95588 87.244141 119.13846 87.094182 119.28711 86.796875 C 119.43576 86.490277 119.50977 86.109549 119.50977 85.654297 L 119.50977 85.417969 C 119.50977 84.860517 119.59691 84.399453 119.77344 84.037109 C 119.95925 83.665475 120.21145 83.480469 120.52734 83.480469 C 120.71316 83.480469 120.83731 83.554471 120.90234 83.703125 C 120.93022 83.786743 120.94531 83.949844 120.94531 84.191406 L 120.94531 86.992188 C 120.94531 87.484603 120.88007 87.782566 120.75 87.884766 C 120.67567 87.93122 120.56467 87.955078 120.41602 87.955078 C 120.38814 87.955078 120.34043 87.939982 120.27539 87.912109 C 120.23823 87.902819 120.2207 87.911581 120.2207 87.939453 C 120.2207 88.190306 120.34047 88.39479 120.58203 88.552734 C 120.82359 88.692097 120.94531 88.896581 120.94531 89.166016 L 120.94531 93 C 120.94531 93.455252 120.78221 93.723023 120.45703 93.806641 C 120.29909 93.880967 120.2207 93.928684 120.2207 93.947266 C 120.2207 93.984429 120.32294 94.001953 120.52734 94.001953 L 122.67188 94.001953 C 122.87627 94.001953 122.97852 93.984429 122.97852 93.947266 C 122.97852 93.88223 122.89575 93.834513 122.72852 93.806641 C 122.42192 93.723023 122.26953 93.455252 122.26953 93 L 122.26953 84.359375 C 122.26953 83.774051 122.40877 83.480469 122.6875 83.480469 C 122.96623 83.480469 123.20771 83.665475 123.41211 84.037109 C 123.64438 84.464489 123.75977 85.064797 123.75977 85.835938 L 123.75977 86.128906 C 123.75977 86.983665 123.98373 87.410156 124.42969 87.410156 C 124.68054 87.410156 124.79593 87.29039 124.77734 87.048828 C 124.75876 86.85372 124.6239 86.755859 124.37305 86.755859 C 124.33588 86.635078 124.31641 86.471977 124.31641 86.267578 C 124.31641 85.803035 124.43374 85.209062 124.66602 84.484375 C 124.69389 84.391466 124.88961 83.819398 125.25195 82.769531 L 118.11523 82.769531 z M 142.92773 82.769531 C 142.75121 82.769531 142.66211 82.802152 142.66211 82.867188 C 142.66211 82.885769 142.70983 82.918389 142.80273 82.964844 C 142.89564 83.011298 142.96965 83.08092 143.02539 83.173828 C 143.10901 83.313191 143.15039 83.504532 143.15039 83.746094 C 143.15039 83.950493 143.10901 84.26598 143.02539 84.693359 L 142.69141 86.476562 C 142.56133 87.136213 142.444 87.549561 142.3418 87.716797 C 142.23031 87.902614 142.05406 87.996094 141.8125 87.996094 C 141.75675 87.996094 141.6959 87.982951 141.63086 87.955078 C 141.60299 87.936496 141.58108 87.945258 141.5625 87.982422 C 141.53463 88.010294 141.52391 88.056058 141.5332 88.121094 C 141.54249 88.176839 141.56635 88.237698 141.60352 88.302734 L 141.71484 88.470703 C 141.7613 88.526448 141.80706 88.567831 141.85352 88.595703 C 142.0765 88.753648 142.18945 88.892891 142.18945 89.013672 L 142.16016 89.125 C 142.15087 89.190036 142.13334 89.296659 142.10547 89.445312 L 141.61719 92.023438 C 141.57073 92.292872 141.52497 92.516833 141.47852 92.693359 C 141.43206 92.869886 141.38434 93.002795 141.33789 93.095703 C 141.18924 93.411592 140.92147 93.685697 140.53125 93.917969 C 140.50338 93.93655 140.51652 93.956028 140.57227 93.974609 C 140.62801 93.993191 140.67816 94.001953 140.72461 94.001953 L 143.23438 94.001953 C 143.29941 94.001953 143.34956 93.993191 143.38672 93.974609 C 143.43317 93.946737 143.44827 93.92726 143.42969 93.917969 C 142.96514 93.694988 142.73242 93.379501 142.73242 92.970703 C 142.73242 92.626941 142.84343 92.04173 143.06641 91.214844 C 143.40088 91.159099 143.5966 91.298342 143.65234 91.632812 C 143.50369 91.902247 143.42969 92.10235 143.42969 92.232422 C 143.42969 92.334621 143.47107 92.441244 143.55469 92.552734 C 143.6476 92.654934 143.74984 92.707031 143.86133 92.707031 C 144.02856 92.707031 144.16343 92.650553 144.26562 92.539062 C 144.36782 92.418281 144.41797 92.2878 144.41797 92.148438 C 144.41797 92.018366 144.34835 91.813882 144.20898 91.535156 C 144.34835 91.349339 144.53531 91.257812 144.76758 91.257812 C 144.96269 91.861718 145.06055 92.41869 145.06055 92.929688 C 145.06055 93.208413 145.02793 93.39342 144.96289 93.486328 C 144.90715 93.579237 144.72457 93.709718 144.41797 93.876953 C 144.40868 93.876953 144.4043 93.881334 144.4043 93.890625 C 144.4043 93.964952 144.46516 94.001953 144.58594 94.001953 L 147.03906 94.001953 C 147.21559 94.001953 147.30273 93.980048 147.30273 93.933594 L 147.28906 93.917969 C 146.9453 93.71357 146.72767 93.541707 146.63477 93.402344 C 146.53257 93.244399 146.44785 92.961532 146.38281 92.552734 L 145.07422 84.34375 C 145.03706 84.13006 145.01758 83.931911 145.01758 83.746094 C 145.01758 83.504532 145.05896 83.313191 145.14258 83.173828 C 145.19832 83.08092 145.28304 83.011298 145.39453 82.964844 C 145.47815 82.92768 145.51953 82.89506 145.51953 82.867188 C 145.51953 82.802152 145.43043 82.769531 145.25391 82.769531 L 142.92773 82.769531 z M 126.2793 83.0625 C 126.0749 83.0625 125.97266 83.086358 125.97266 83.132812 C 125.97266 83.188558 126.05542 83.22994 126.22266 83.257812 C 126.52925 83.34143 126.68359 83.611154 126.68359 84.066406 L 126.68359 93 C 126.68359 93.455252 126.52925 93.723023 126.22266 93.806641 C 126.05542 93.834513 125.97266 93.88223 125.97266 93.947266 C 125.97266 93.984429 126.0749 94.001953 126.2793 94.001953 L 128.24414 94.001953 C 128.44854 94.001953 128.55078 93.984429 128.55078 93.947266 C 128.55078 93.900811 128.46606 93.853095 128.29883 93.806641 C 127.98294 93.713732 127.82617 93.445961 127.82617 93 L 127.82617 89.083984 C 127.82617 88.024827 128.06766 87.494141 128.55078 87.494141 C 129.1454 87.494141 129.44141 88.079352 129.44141 89.25 C 129.44141 89.593762 129.4195 89.965728 129.37305 90.365234 C 129.33588 90.75545 129.27064 91.181942 129.17773 91.646484 C 129.0105 92.556988 128.92578 93.194297 128.92578 93.556641 C 128.92578 94.755161 129.2476 95.353516 129.88867 95.353516 C 130.1674 95.353516 130.30664 95.242512 130.30664 95.019531 C 130.30664 94.796551 130.20002 94.685547 129.98633 94.685547 C 129.95846 94.685547 129.91074 94.694309 129.8457 94.712891 C 129.78067 94.731472 129.73052 94.740234 129.69336 94.740234 C 129.50754 94.740234 129.41406 94.498749 129.41406 94.015625 C 129.41406 93.811226 129.59469 93.138869 129.95703 91.996094 C 130.32867 90.8719 130.51563 89.825624 130.51562 88.859375 C 130.51562 87.335675 129.98494 86.574219 128.92578 86.574219 C 128.4984 86.574219 128.13277 86.728558 127.82617 87.035156 L 127.82617 83.0625 L 126.2793 83.0625 z M 148.32617 83.0625 C 148.12177 83.0625 148.01953 83.086358 148.01953 83.132812 C 148.01953 83.188558 148.1023 83.22994 148.26953 83.257812 C 148.57613 83.34143 148.73047 83.611154 148.73047 84.066406 L 148.73047 93 C 148.73047 93.455252 148.57613 93.723023 148.26953 93.806641 C 148.1023 93.834513 148.01953 93.88223 148.01953 93.947266 C 148.01953 93.984429 148.12177 94.001953 148.32617 94.001953 L 150.29102 94.001953 C 150.49541 94.001953 150.59766 93.984429 150.59766 93.947266 C 150.59766 93.900811 150.51489 93.853095 150.34766 93.806641 C 150.03177 93.713732 149.87305 93.445961 149.87305 93 L 149.87305 83.0625 L 148.32617 83.0625 z M 156.35547 83.0625 C 156.15107 83.0625 156.04883 83.086358 156.04883 83.132812 C 156.04883 83.188558 156.13355 83.22994 156.30078 83.257812 C 156.60738 83.34143 156.75977 83.611154 156.75977 84.066406 L 156.75977 93 C 156.75977 93.455252 156.60738 93.723023 156.30078 93.806641 C 156.13355 93.834513 156.04883 93.88223 156.04883 93.947266 C 156.04883 93.984429 156.15107 94.001953 156.35547 94.001953 L 158.32031 94.001953 C 158.52471 94.001953 158.62695 93.984429 158.62695 93.947266 C 158.62695 93.900811 158.54419 93.853095 158.37695 93.806641 C 158.06106 93.713732 157.90234 93.445961 157.90234 93 L 157.90234 89.083984 C 157.90234 88.024827 158.14383 87.494141 158.62695 87.494141 C 159.22157 87.494141 159.51953 88.079352 159.51953 89.25 C 159.51953 89.593762 159.49567 89.965728 159.44922 90.365234 C 159.41206 90.75545 159.34681 91.181942 159.25391 91.646484 C 159.08667 92.556988 159.00391 93.194297 159.00391 93.556641 C 159.00391 94.755161 159.32377 95.353516 159.96484 95.353516 C 160.24357 95.353516 160.38281 95.242512 160.38281 95.019531 C 160.38281 94.796551 160.27619 94.685547 160.0625 94.685547 C 160.03463 94.685547 159.98886 94.694309 159.92383 94.712891 C 159.85879 94.731472 159.80669 94.740234 159.76953 94.740234 C 159.58371 94.740234 159.49219 94.498749 159.49219 94.015625 C 159.49219 93.811226 159.67281 93.138869 160.03516 91.996094 C 160.40679 90.8719 160.5918 89.825624 160.5918 88.859375 C 160.5918 87.335675 160.06306 86.574219 159.00391 86.574219 C 158.57653 86.574219 158.20894 86.728558 157.90234 87.035156 L 157.90234 83.0625 L 156.35547 83.0625 z M 175.14648 83.550781 C 174.93279 83.550781 174.76969 83.642308 174.6582 83.828125 C 174.556 84.004651 174.50586 84.195992 174.50586 84.400391 C 174.50586 84.632662 174.55162 84.828384 174.64453 84.986328 C 174.76531 85.181436 174.93279 85.279297 175.14648 85.279297 C 175.35088 85.279297 175.51837 85.181436 175.64844 84.986328 C 175.74135 84.828384 175.78711 84.632662 175.78711 84.400391 C 175.78711 84.186701 175.74135 84.001695 175.64844 83.84375 C 175.51837 83.648642 175.35088 83.550781 175.14648 83.550781 z M 183.71875 83.982422 C 183.58868 84.196112 183.47767 84.376737 183.38477 84.525391 C 183.29186 84.664753 183.21785 84.766995 183.16211 84.832031 C 183.0692 84.934231 182.94748 85.051569 182.79883 85.181641 C 182.65017 85.302422 182.47393 85.437284 182.26953 85.585938 C 182.44606 85.762464 182.5483 85.91485 182.57617 86.044922 C 182.58546 86.072794 182.58984 86.277278 182.58984 86.658203 L 182.01758 86.658203 L 182.01758 87.410156 L 182.58984 87.410156 L 182.58984 91.578125 C 182.58984 92.516501 182.71156 93.175716 182.95312 93.556641 C 183.15752 93.891111 183.53825 94.058594 184.0957 94.058594 C 184.53237 94.058594 184.8761 93.919351 185.12695 93.640625 C 185.34993 93.389772 185.46094 93.091809 185.46094 92.748047 C 185.46094 92.543648 185.42832 92.354261 185.36328 92.177734 C 185.30754 91.991917 185.22477 91.837578 185.11328 91.716797 C 185.00179 91.586725 184.86693 91.493245 184.70898 91.4375 C 184.56033 91.372464 184.39285 91.35494 184.20703 91.382812 C 184.44859 91.782319 184.56836 92.097807 184.56836 92.330078 C 184.56836 92.748167 184.4335 92.957031 184.16406 92.957031 C 183.96895 92.957031 183.84481 92.869886 183.78906 92.693359 C 183.77048 92.600451 183.751 92.454874 183.73242 92.259766 C 183.72313 92.055367 183.71875 91.791977 183.71875 91.466797 L 183.71875 87.410156 L 184.56836 87.410156 L 184.56836 86.658203 L 183.71875 86.658203 L 183.71875 83.982422 z M 143.98633 85.599609 C 143.99562 85.581028 144.00438 85.581028 144.01367 85.599609 C 144.02296 85.618191 144.0293 85.644477 144.0293 85.681641 L 144.61328 89.792969 C 144.32526 90.034531 144.11202 90.221491 143.97266 90.351562 C 143.61031 90.007801 143.37321 89.798936 143.26172 89.724609 L 143.98633 85.599609 z M 133.42383 86.574219 C 132.0302 86.574219 131.33398 87.953507 131.33398 90.712891 C 131.33398 91.818502 131.51023 92.669057 131.86328 93.263672 C 132.17917 93.793251 132.62952 94.058594 133.21484 94.058594 C 133.83733 94.058594 134.31592 93.862872 134.65039 93.472656 C 134.95699 93.101022 135.11133 92.622433 135.11133 92.037109 C 135.11133 91.637603 135.01347 91.326496 134.81836 91.103516 C 134.63254 90.880535 134.37596 90.769531 134.05078 90.769531 C 134.00433 90.769531 133.95856 90.773912 133.91211 90.783203 C 133.86566 90.783203 133.81989 90.787584 133.77344 90.796875 C 134.03358 91.140637 134.16406 91.484363 134.16406 91.828125 C 134.16406 92.09756 134.07058 92.362903 133.88477 92.623047 C 133.69895 92.8739 133.51199 93 133.32617 93 C 132.98241 93 132.73216 92.845661 132.57422 92.539062 C 132.42557 92.223173 132.35156 91.670582 132.35156 90.880859 C 132.35156 88.641763 132.71477 87.521484 133.43945 87.521484 C 133.94116 87.521484 134.19141 87.875926 134.19141 88.582031 C 134.19141 89.009411 134.04778 89.353137 133.75977 89.613281 L 132.96484 90.197266 C 132.67683 90.448119 132.5332 90.774321 132.5332 91.173828 C 132.5332 91.387518 132.59844 91.568143 132.72852 91.716797 C 132.85859 91.865451 132.99783 91.939453 133.14648 91.939453 C 133.25797 91.939453 133.35584 91.89369 133.43945 91.800781 C 133.53236 91.707873 133.57812 91.610012 133.57812 91.507812 C 133.57812 91.312705 133.48903 91.214844 133.3125 91.214844 C 133.24746 91.214844 133.18222 91.243083 133.11719 91.298828 C 133.05215 91.354573 133.01077 91.382812 132.99219 91.382812 C 132.91786 91.382812 132.88086 91.298095 132.88086 91.130859 C 132.88086 90.740643 133.13111 90.462157 133.63281 90.294922 C 133.83721 90.229886 134.06555 90.188504 134.31641 90.169922 C 134.56726 90.142049 134.85013 90.137668 135.16602 90.15625 C 135.19389 89.868233 135.20898 89.598509 135.20898 89.347656 C 135.20898 88.446443 135.04588 87.750228 134.7207 87.257812 C 134.4141 86.802561 133.98128 86.574219 133.42383 86.574219 z M 153.4707 86.574219 C 152.10495 86.574219 151.42187 87.833741 151.42188 90.351562 C 151.42188 92.82293 152.10057 94.058594 153.45703 94.058594 C 154.64626 94.058594 155.24023 93.39938 155.24023 92.080078 C 155.24023 91.912843 155.20761 91.754122 155.14258 91.605469 C 155.08683 91.447524 155.00845 91.308281 154.90625 91.1875 C 154.81334 91.066719 154.69796 90.973239 154.55859 90.908203 C 154.41923 90.833876 154.27365 90.796875 154.125 90.796875 C 153.92989 90.796875 153.81451 90.870878 153.77734 91.019531 C 154.14898 91.084567 154.33398 91.358672 154.33398 91.841797 C 154.33398 92.612938 154.04236 93 153.45703 93 C 153.0854 93 152.82443 92.817421 152.67578 92.455078 C 152.51784 92.03699 152.43945 91.275534 152.43945 90.169922 C 152.43945 89.166509 152.53731 88.459579 152.73242 88.050781 C 152.89966 87.697729 153.17814 87.521484 153.56836 87.521484 C 153.76347 87.521484 153.93095 87.614964 154.07031 87.800781 C 154.20968 87.986598 154.2793 88.186701 154.2793 88.400391 C 154.2793 88.688407 154.1532 89.012657 153.90234 89.375 C 154.06029 89.458618 154.23215 89.473714 154.41797 89.417969 C 154.65953 89.297188 154.82263 89.194946 154.90625 89.111328 C 155.07349 88.906929 155.15625 88.608966 155.15625 88.21875 C 155.15625 87.689171 154.9951 87.284585 154.66992 87.005859 C 154.35403 86.717843 153.95383 86.574219 153.4707 86.574219 z M 163.50195 86.574219 C 162.10832 86.574219 161.41211 87.953507 161.41211 90.712891 C 161.41211 91.818502 161.58835 92.669057 161.94141 93.263672 C 162.2573 93.793251 162.70764 94.058594 163.29297 94.058594 C 163.91546 94.058594 164.39404 93.862872 164.72852 93.472656 C 165.03511 93.101022 165.1875 92.622433 165.1875 92.037109 C 165.1875 91.637603 165.09159 91.326496 164.89648 91.103516 C 164.71067 90.880535 164.45409 90.769531 164.12891 90.769531 C 164.08245 90.769531 164.03669 90.773912 163.99023 90.783203 C 163.94378 90.783203 163.89606 90.787584 163.84961 90.796875 C 164.10975 91.140637 164.24023 91.484363 164.24023 91.828125 C 164.24023 92.09756 164.14675 92.362903 163.96094 92.623047 C 163.77512 92.8739 163.59011 93 163.4043 93 C 163.06054 93 162.81029 92.845661 162.65234 92.539062 C 162.50369 92.223173 162.42969 91.670582 162.42969 90.880859 C 162.42969 88.641763 162.79094 87.521484 163.51562 87.521484 C 164.01733 87.521484 164.26758 87.875926 164.26758 88.582031 C 164.26758 89.009411 164.12395 89.353137 163.83594 89.613281 L 163.04297 90.197266 C 162.75495 90.448119 162.60938 90.774321 162.60938 91.173828 C 162.60938 91.387518 162.67462 91.568143 162.80469 91.716797 C 162.93476 91.865451 163.074 91.939453 163.22266 91.939453 C 163.33415 91.939453 163.43201 91.89369 163.51562 91.800781 C 163.60853 91.707873 163.6543 91.610012 163.6543 91.507812 C 163.6543 91.312705 163.56715 91.214844 163.39062 91.214844 C 163.32559 91.214844 163.26035 91.243083 163.19531 91.298828 C 163.13028 91.354573 163.08889 91.382812 163.07031 91.382812 C 162.99599 91.382812 162.95898 91.298095 162.95898 91.130859 C 162.95898 90.740643 163.20923 90.462157 163.71094 90.294922 C 163.91534 90.229886 164.14368 90.188504 164.39453 90.169922 C 164.64538 90.142049 164.92825 90.137668 165.24414 90.15625 C 165.27201 89.868233 165.28516 89.598509 165.28516 89.347656 C 165.28516 88.446443 165.12401 87.750228 164.79883 87.257812 C 164.49223 86.802561 164.0594 86.574219 163.50195 86.574219 z M 168.89453 86.574219 C 168.44857 86.574219 168.07222 86.806942 167.76562 87.271484 L 167.76562 86.658203 L 166.40039 86.658203 C 166.19599 86.658203 166.09375 86.675727 166.09375 86.712891 C 166.09375 86.759345 166.17213 86.807061 166.33008 86.853516 C 166.49731 86.890679 166.59956 86.969063 166.63672 87.089844 C 166.6553 87.182752 166.66406 87.369712 166.66406 87.648438 L 166.66406 93 C 166.66406 93.278726 166.6553 93.463732 166.63672 93.556641 C 166.59956 93.677422 166.49731 93.755805 166.33008 93.792969 C 166.17213 93.839423 166.09375 93.89152 166.09375 93.947266 C 166.09375 93.984429 166.19599 94.001953 166.40039 94.001953 L 168.05859 94.001953 C 168.26299 94.001953 168.36523 93.984429 168.36523 93.947266 C 168.36523 93.900811 168.28052 93.853095 168.11328 93.806641 C 167.95534 93.769477 167.85943 93.686713 167.82227 93.556641 C 167.80368 93.463732 167.79297 93.278726 167.79297 93 L 167.79297 88.386719 C 167.79297 87.847849 168.03007 87.578125 168.50391 87.578125 C 168.97774 87.578125 169.21484 87.806467 169.21484 88.261719 L 169.21484 93 C 169.21484 93.157945 169.21046 93.282091 169.20117 93.375 C 169.20117 93.458618 169.19679 93.519477 169.1875 93.556641 C 169.15963 93.668131 169.06177 93.746514 168.89453 93.792969 C 168.7273 93.839423 168.64453 93.89152 168.64453 93.947266 C 168.64453 93.984429 168.74482 94.001953 168.94922 94.001953 L 170.62305 94.001953 C 170.82745 94.001953 170.92969 93.984429 170.92969 93.947266 C 170.92969 93.919393 170.84497 93.878011 170.67773 93.822266 C 170.5105 93.76652 170.41264 93.677422 170.38477 93.556641 C 170.37547 93.519477 170.36671 93.458618 170.35742 93.375 L 170.35742 93 L 170.35742 88.845703 C 170.35742 88.000235 170.59453 87.578125 171.06836 87.578125 C 171.38425 87.578125 171.60821 87.689129 171.73828 87.912109 C 171.88693 88.153672 171.96094 88.59964 171.96094 89.25 C 171.96094 89.928232 171.87622 90.72669 171.70898 91.646484 C 171.54175 92.556988 171.45898 93.194297 171.45898 93.556641 C 171.45898 94.755161 171.77447 95.353516 172.40625 95.353516 C 172.69427 95.353516 172.83789 95.242512 172.83789 95.019531 C 172.83789 94.796551 172.72689 94.685547 172.50391 94.685547 C 172.47603 94.685547 172.43027 94.694309 172.36523 94.712891 C 172.30949 94.731472 172.26177 94.740234 172.22461 94.740234 C 172.0295 94.740234 171.93164 94.498749 171.93164 94.015625 C 171.93164 93.811226 172.11422 93.138869 172.47656 91.996094 C 172.8482 90.8719 173.0332 89.825624 173.0332 88.859375 C 173.0332 87.335675 172.50885 86.574219 171.45898 86.574219 C 170.95728 86.574219 170.50693 86.824466 170.10742 87.326172 C 169.86586 86.824466 169.46127 86.574219 168.89453 86.574219 z M 179.30273 86.574219 C 178.75457 86.574219 178.31737 86.765559 177.99219 87.146484 C 177.70417 87.490246 177.56055 87.916737 177.56055 88.427734 C 177.56055 89.022349 177.78255 89.505319 178.22852 89.876953 C 178.44221 90.025607 178.65107 90.169231 178.85547 90.308594 C 179.05987 90.447957 179.26435 90.593534 179.46875 90.742188 C 179.91471 91.09524 180.13867 91.51735 180.13867 92.009766 C 180.13867 92.307073 180.04081 92.568035 179.8457 92.791016 C 179.65989 93.013996 179.42278 93.125 179.13477 93.125 C 178.86533 93.125 178.64137 93.03152 178.46484 92.845703 C 178.29761 92.650595 178.21484 92.413491 178.21484 92.134766 C 178.21484 91.753841 178.35847 91.401352 178.64648 91.076172 C 178.58145 90.983263 178.41397 90.9375 178.14453 90.9375 C 177.93084 90.9375 177.73707 91.052885 177.56055 91.285156 C 177.35615 91.526718 177.25391 91.833444 177.25391 92.205078 C 177.25391 92.818275 177.44767 93.292482 177.83789 93.626953 C 178.18165 93.91497 178.61448 94.058594 179.13477 94.058594 C 179.79442 94.058594 180.30124 93.834633 180.6543 93.388672 C 180.9516 92.989165 181.09961 92.497433 181.09961 91.912109 C 181.09961 91.224586 180.87565 90.648137 180.42969 90.183594 C 180.3182 90.062813 179.91118 89.751706 179.20508 89.25 C 178.75912 88.934111 178.53516 88.614242 178.53516 88.289062 C 178.53516 88.066082 178.60478 87.879122 178.74414 87.730469 C 178.89279 87.581815 179.07342 87.507812 179.28711 87.507812 C 179.85385 87.507812 180.13867 87.764394 180.13867 88.275391 C 180.13867 88.461208 179.99309 88.711455 179.70508 89.027344 C 179.77011 89.120252 179.9006 89.166016 180.0957 89.166016 C 180.36514 89.166016 180.5891 89.059393 180.76562 88.845703 C 180.94215 88.622723 181.0293 88.339855 181.0293 87.996094 C 181.0293 87.578005 180.86815 87.23866 180.54297 86.978516 C 180.21779 86.709081 179.80444 86.574219 179.30273 86.574219 z M 174.1582 86.658203 C 173.9538 86.658203 173.85156 86.675727 173.85156 86.712891 C 173.85156 86.768636 173.93433 86.811971 174.10156 86.839844 C 174.40816 86.942043 174.56055 87.211767 174.56055 87.648438 L 174.56055 93 C 174.56055 93.455252 174.40816 93.723023 174.10156 93.806641 C 173.93433 93.834513 173.85156 93.88223 173.85156 93.947266 C 173.85156 93.984429 173.9538 94.001953 174.1582 94.001953 L 176.12305 94.001953 C 176.32745 94.001953 176.42969 93.984429 176.42969 93.947266 C 176.42969 93.900811 176.34497 93.853095 176.17773 93.806641 C 175.86185 93.713732 175.70508 93.445961 175.70508 93 L 175.70508 86.658203 L 174.1582 86.658203 z "
       style="font-style:normal;font-variant:normal;font-weight:normal;font-stretch:normal;font-size:13.93628311px;line-height:10;font-family:Campanile;-inkscape-font-specification:'Campanile, Normal';font-variant-ligatures:normal;font-variant-caps:normal;font-variant-numeric:normal;font-feature-settings:normal;text-align:start;letter-spacing:0px;word-spacing:0px;writing-mode:lr-tb;text-anchor:start;fill:#f3f3f3;fill-opacity:1;stroke:none;stroke-width:0.43550885"
       id="text817-5-4"
       d="m 118.43945,83.005859 c 0.49403,1.385043 0.77735,2.441945 0.77735,3.136719 v 0.111328 c 0.0363,-0.17805 0.0566,-0.376499 0.0566,-0.599609 v -0.236328 c 0,-0.582067 0.0894,-1.078622 0.28711,-1.484375 a 0.2362214,0.2362214 0 0 1 0.002,-0.002 c 0.21002,-0.420054 0.55673,-0.6875 0.96484,-0.6875 0.24853,0 0.49407,0.141819 0.5918,0.365234 a 0.2362214,0.2362214 0 0 1 0.008,0.01953 c 0.049,0.146788 0.0547,0.311102 0.0547,0.5625 v 2.800782 c 0,0.256638 -0.0163,0.467193 -0.0547,0.642578 -0.0384,0.175385 -0.0928,0.327403 -0.23047,0.435546 a 0.2362214,0.2362214 0 0 1 -0.0215,0.01563 c -0.10474,0.06546 -0.23171,0.07298 -0.36133,0.08203 0.0395,0.06535 0.10157,0.124928 0.19727,0.1875 l -0.0117,-0.0078 c 0.29844,0.172177 0.48242,0.477788 0.48242,0.81836 V 93 c 0,0.255833 -0.0442,0.481266 -0.15625,0.666016 -0.0241,0.03975 -0.0633,0.06506 -0.0937,0.09961 h 1.33984 c -0.0303,-0.03603 -0.0683,-0.06413 -0.0918,-0.105469 C 122.0749,93.476004 122.0332,93.253981 122.0332,93 v -8.640625 c 0,-0.311391 0.0311,-0.558099 0.12696,-0.759766 0.0958,-0.201666 0.30505,-0.355468 0.52734,-0.355468 0.38325,0 0.70534,0.268226 0.93164,0.679687 0.26091,0.480076 0.37695,1.117406 0.37695,1.91211 v 0.292968 c 0,0.406751 0.0589,0.695381 0.14063,0.851563 0.0817,0.156181 0.14528,0.193359 0.29297,0.193359 0.0878,0 0.10673,-0.01889 0.10547,-0.01758 -0.001,0.0013 0.0121,-0.0093 0.006,-0.08984 -0.004,-0.03646 -0.007,-0.03951 -0.0176,-0.04687 -0.011,-0.008 -0.0557,-0.02734 -0.15039,-0.02734 a 0.2362214,0.2362214 0 0 1 -0.22657,-0.166016 c -0.0479,-0.155753 -0.0664,-0.339196 -0.0664,-0.558594 0,-0.503288 0.12364,-1.115181 0.35937,-1.851562 l 0.002,-0.0039 c 0.0321,-0.106756 0.23572,-0.696431 0.48047,-1.40625 z m 24.73828,0 c 0.0137,0.01892 0.0387,0.02678 0.0508,0.04687 0.115,0.191673 0.1582,0.424824 0.1582,0.69336 0,0.236277 -0.0439,0.557722 -0.12891,0.992187 l -0.33398,1.78125 a 0.2362214,0.2362214 0 0 1 0,0.002 c -0.13167,0.667726 -0.2303,1.071994 -0.38086,1.31836 -0.14586,0.241073 -0.41403,0.378439 -0.70508,0.386718 l 0.0664,0.09961 c 0.0301,0.03445 0.0551,0.05731 0.0703,0.06641 a 0.2362214,0.2362214 0 0 1 0.0156,0.0098 c 0.24572,0.174046 0.43555,0.343291 0.43555,0.611328 a 0.2362214,0.2362214 0 0 1 -0.008,0.06055 l -0.0254,0.09766 c -0.0103,0.07058 -0.0275,0.171509 -0.0547,0.316406 a 0.2362214,0.2362214 0 0 1 0,0.002 l -0.48828,2.578125 c -0.0469,0.271466 -0.0936,0.499411 -0.14258,0.685547 -0.0485,0.184374 -0.0994,0.326522 -0.15625,0.441406 -0.0994,0.211197 -0.25334,0.398151 -0.4375,0.570313 h 1.75781 c -0.21825,-0.225573 -0.375,-0.483494 -0.375,-0.794922 0,-0.394612 0.11666,-0.981499 0.3418,-1.816406 a 0.2362214,0.2362214 0 0 1 0.18945,-0.171875 c 0.20607,-0.03434 0.41246,-0.0118 0.57422,0.103516 0.16176,0.115313 0.24884,0.301603 0.28321,0.507812 a 0.2362214,0.2362214 0 0 1 -0.0254,0.152344 c -0.14078,0.255155 -0.19336,0.44584 -0.19336,0.486328 0,0.03636 0.0197,0.09165 0.0742,0.167969 0.0521,0.05327 0.0864,0.07031 0.1211,0.07031 0.11205,0 0.16856,-0.0278 0.22656,-0.08984 0.0686,-0.08302 0.0937,-0.15171 0.0937,-0.232421 0,-0.04579 -0.0508,-0.242276 -0.18359,-0.507813 a 0.2362214,0.2362214 0 0 1 0.0215,-0.248047 c 0.17787,-0.237147 0.45373,-0.371094 0.74805,-0.371094 a 0.2362214,0.2362214 0 0 1 0.22461,0.164063 c 0.20107,0.622348 0.30468,1.202987 0.30469,1.744141 0,0.294336 -0.0138,0.503548 -0.13868,0.685546 -0.0394,0.06292 -0.099,0.105093 -0.15429,0.150391 h 1.72265 c -0.0866,-0.07499 -0.23462,-0.150756 -0.28906,-0.232422 a 0.2362214,0.2362214 0 0 1 -0.002,-0.002 c -0.13974,-0.215949 -0.21778,-0.517873 -0.28516,-0.941406 l -1.30859,-8.205078 v -0.0039 c -0.0386,-0.222732 -0.0606,-0.433667 -0.0606,-0.634765 0,-0.268536 0.0432,-0.501687 0.1582,-0.69336 0.0126,-0.02103 0.04,-0.02745 0.0547,-0.04687 z m -16.49804,0.292969 c 0.0308,0.03643 0.0699,0.06558 0.0937,0.107422 0.10522,0.184415 0.14648,0.405838 0.14648,0.660156 V 93 c 0,0.254318 -0.0411,0.476109 -0.14648,0.660156 -0.0238,0.04152 -0.0631,0.06933 -0.0937,0.105469 h 1.1582 c -0.0324,-0.0373 -0.0724,-0.06826 -0.0977,-0.111328 C 127.63273,93.470783 127.58984,93.250658 127.58984,93 v -3.916016 c 0,-0.547529 0.0577,-0.969958 0.20313,-1.289062 0.14538,-0.319104 0.42977,-0.537109 0.75781,-0.53711 0.3748,0 0.70183,0.219021 0.87891,0.56836 0.17707,0.349339 0.24804,0.818596 0.24804,1.423828 0,0.353798 -0.0229,0.734829 -0.0703,1.142578 -0.0382,0.39856 -0.10348,0.831893 -0.19726,1.300781 -0.16557,0.902222 -0.24805,1.538424 -0.24805,1.863282 0,0.14949 0.0207,0.257119 0.0312,0.384765 0.009,-0.161188 0.0464,-0.337654 0.12891,-0.644531 0.092,-0.342286 0.22837,-0.799717 0.41015,-1.373047 a 0.2362214,0.2362214 0 0 1 0,-0.002 c 0.36534,-1.105141 0.54689,-2.126721 0.54688,-3.0625 0,-0.734429 -0.13257,-1.257873 -0.35547,-1.578125 -0.22291,-0.320252 -0.52507,-0.470703 -0.99805,-0.470703 -0.37051,0 -0.66341,0.124346 -0.93164,0.392578 a 0.2362214,0.2362214 0 0 1 -0.4043,-0.167969 v -3.736328 z m 22.04687,0 c 0.0308,0.03643 0.0699,0.06558 0.0937,0.107422 0.10523,0.184415 0.14649,0.405838 0.14649,0.660156 V 93 c 0,0.254318 -0.0411,0.476108 -0.14649,0.660156 -0.0238,0.04152 -0.0631,0.06933 -0.0937,0.105469 h 1.16016 c -0.0323,-0.03708 -0.0724,-0.06656 -0.0977,-0.109375 -0.10811,-0.1834 -0.15234,-0.405248 -0.15234,-0.65625 v -9.701172 z m 8.03125,0 c 0.0307,0.03648 0.07,0.06556 0.0937,0.107422 0.10462,0.184518 0.14453,0.406175 0.14453,0.660156 V 93 c 0,0.253981 -0.0417,0.476004 -0.14648,0.660156 -0.0235,0.04134 -0.0615,0.06943 -0.0918,0.105469 h 1.15821 c -0.0323,-0.03708 -0.0724,-0.06656 -0.0977,-0.109375 -0.10811,-0.1834 -0.15234,-0.405248 -0.15234,-0.65625 v -3.916016 c 0,-0.547529 0.0577,-0.969958 0.20312,-1.289062 0.14538,-0.319104 0.42977,-0.537109 0.75781,-0.53711 0.3748,0 0.70127,0.219043 0.87891,0.56836 0.17764,0.349317 0.25,0.818465 0.25,1.423828 0,0.354691 -0.025,0.735583 -0.0723,1.142578 -0.0382,0.398568 -0.10349,0.831899 -0.19726,1.300781 -0.16551,0.901897 -0.2461,1.537574 -0.2461,1.863282 0,0.151003 0.0186,0.259947 0.0293,0.388671 0.009,-0.161765 0.0478,-0.339592 0.13086,-0.648437 0.092,-0.342287 0.22837,-0.799716 0.41016,-1.373047 a 0.2362214,0.2362214 0 0 1 0,-0.002 c 0.36525,-1.104908 0.54492,-2.126401 0.54492,-3.0625 0,-0.734529 -0.13106,-1.259879 -0.35352,-1.580078 -0.22245,-0.320199 -0.52507,-0.46875 -0.99804,-0.46875 -0.37052,0 -0.66572,0.124702 -0.9336,0.392578 a 0.2362214,0.2362214 0 0 1 -0.40429,-0.167969 v -3.736328 z m 18.38867,0.488281 c -0.18234,-0.0907 -0.2825,0.251291 -0.2832,0.16211 -0.0812,0.140939 -0.12109,0.286066 -0.12109,0.451172 0,0.198664 0.0382,0.347785 0.10351,0.460937 0.088,0.142074 0.15921,0.181641 0.30078,0.181641 0.12745,0 0.20408,-0.04234 0.30079,-0.185547 0.0643,-0.112829 0.10351,-0.25997 0.10351,-0.457031 0,-0.175991 -0.0372,-0.311714 -0.10351,-0.427735 -0.0967,-0.143207 -0.17334,-0.185547 -0.30079,-0.185547 z m 8.33594,1.00586 c -0.0469,0.06445 -0.14453,0.195963 -0.14648,0.197265 -0.10145,0.111593 -0.22732,0.23479 -0.38086,0.369141 a 0.2362214,0.2362214 0 0 1 -0.008,0.0059 c -0.10353,0.08411 -0.23692,0.18306 -0.36524,0.279297 0.0853,0.112415 0.19505,0.22222 0.22266,0.347657 0.012,0.04519 0.012,0.06598 0.0137,0.09375 0.002,0.03417 0.003,0.07615 0.004,0.128906 0.002,0.105507 0.004,0.251991 0.004,0.443359 a 0.2362214,0.2362214 0 0 1 -0.23633,0.236328 h -0.33593 v 0.279297 h 0.33593 a 0.2362214,0.2362214 0 0 1 0.23633,0.236328 v 4.167969 c 0,0.917951 0.1314,1.544413 0.32617,1.851563 a 0.2362214,0.2362214 0 0 1 0.002,0.0039 c 0.15464,0.253049 0.43126,0.388672 0.9414,0.388672 0.38646,0 0.65023,-0.111791 0.85547,-0.339844 0.18633,-0.210181 0.27344,-0.442078 0.27344,-0.734375 0,-0.179269 -0.0271,-0.339139 -0.082,-0.488281 a 0.2362214,0.2362214 0 0 1 -0.006,-0.01367 c -0.0476,-0.158657 -0.11428,-0.279238 -0.19727,-0.369141 a 0.2362214,0.2362214 0 0 1 -0.006,-0.0059 c -0.0866,-0.10107 -0.18314,-0.16873 -0.30273,-0.210938 a 0.2362214,0.2362214 0 0 1 -0.0156,-0.0059 c -0.002,-7.03e-4 -0.004,6.88e-4 -0.006,0 0.11376,0.24265 0.19531,0.469988 0.19531,0.675781 0,0.234441 -0.0324,0.432906 -0.13867,0.597656 -0.10628,0.164751 -0.30621,0.265625 -0.50196,0.265625 -0.13272,0 -0.26519,-0.0322 -0.375,-0.109375 -0.10981,-0.07718 -0.18493,-0.194683 -0.22461,-0.320312 a 0.2362214,0.2362214 0 0 1 -0.008,-0.02344 c -0.0217,-0.108301 -0.0396,-0.259404 -0.0586,-0.458984 a 0.2362214,0.2362214 0 0 1 -0.002,-0.01172 c -0.01,-0.210229 -0.0137,-0.475433 -0.0137,-0.802734 v -4.056641 a 0.2362214,0.2362214 0 0 1 0.23633,-0.236328 h 0.61328 v -0.279297 h -0.61328 a 0.2362214,0.2362214 0 0 1 -0.23633,-0.236328 z M 144,85.349609 c 0.14371,-0.0272 0.30943,0.218658 0.26367,0.298829 l 0.58399,4.111328 a 0.2362214,0.2362214 0 0 1 -0.082,0.214843 c -0.28602,0.239888 -0.49682,0.423729 -0.63085,0.548829 a 0.2362214,0.2362214 0 0 1 -0.32422,0 c -0.35969,-0.341232 -0.60953,-0.554788 -0.67969,-0.601563 a 0.2362214,0.2362214 0 0 1 -0.10156,-0.238281 l 0.72461,-4.125 a 0.2362214,0.2362214 0 0 1 0.0215,-0.06445 c 0.009,-0.01793 0.0194,-0.04027 0.0488,-0.07031 0.007,-0.0075 0.0168,-0.01533 0.0273,-0.02344 0.0105,-0.0081 0.0366,-0.02315 0.0371,-0.02344 0.001,-5.81e-4 0.1102,-0.02734 0.11133,-0.02734 z m -24.89062,1.238282 c -0.0783,0.25382 -0.61986,0.46239 -0.53516,0.292968 0.008,0.0319 0.11979,0.116537 0.16797,0.126953 0.10273,0 0.20456,-0.06077 0.33203,-0.314453 0.0149,-0.03068 0.0219,-0.07265 0.0352,-0.105468 z m 14.31445,0.222656 c -0.61889,0 -1.03773,0.271122 -1.35742,0.904297 -0.3197,0.633174 -0.4961,1.63822 -0.4961,2.998047 0,1.080508 0.17591,1.890421 0.4961,2.429687 0.28307,0.474568 0.6345,0.679688 1.14843,0.679688 0.57298,0 0.96845,-0.16859 1.25586,-0.503907 0.26622,-0.324377 0.4043,-0.73931 0.4043,-1.28125 0,-0.360934 -0.0852,-0.606846 -0.23438,-0.777343 a 0.2362214,0.2362214 0 0 1 -0.004,-0.0059 c -0.11688,-0.140255 -0.26854,-0.203318 -0.46484,-0.226562 0.13359,0.261638 0.22851,0.527848 0.22851,0.800781 0,0.324067 -0.11603,0.640171 -0.32422,0.931641 a 0.2362214,0.2362214 0 0 1 -0.002,0.0039 c -0.20839,0.281322 -0.45537,0.472656 -0.74805,0.472656 -0.41446,0 -0.77321,-0.221637 -0.96289,-0.589844 a 0.2362214,0.2362214 0 0 1 -0.002,-0.0078 c -0.18098,-0.384583 -0.2461,-0.953333 -0.2461,-1.757813 0,-1.132319 0.0876,-1.987956 0.28321,-2.591797 0.0978,-0.30192 0.22399,-0.545026 0.39648,-0.722656 0.17249,-0.17763 0.40251,-0.28125 0.64453,-0.28125 0.30648,0 0.58963,0.127776 0.75782,0.365235 0.16818,0.237459 0.23046,0.550684 0.23046,0.93164 0,0.4803 -0.17394,0.9037 -0.50976,1.207031 a 0.2362214,0.2362214 0 0 1 -0.0176,0.01367 l -0.46484,0.341797 c 0.0477,-0.01962 0.0718,-0.05715 0.12304,-0.07422 a 0.2362214,0.2362214 0 0 1 0.002,0 c 0.22283,-0.0709 0.46764,-0.114749 0.73047,-0.134765 0.19637,-0.02182 0.42462,-0.01657 0.65234,-0.01172 0.015,-0.199221 0.0293,-0.399052 0.0293,-0.576172 0,-0.871455 -0.15928,-1.519758 -0.44727,-1.957031 l -0.002,-0.002 c -0.26923,-0.39837 -0.60772,-0.578125 -1.09961,-0.578125 z m 20.04687,0 c -0.61026,0 -1.01809,0.248703 -1.32812,0.820312 -0.31003,0.57161 -0.48438,1.483153 -0.48438,2.720703 0,1.214063 0.17321,2.106401 0.48047,2.666016 0.30726,0.559616 0.71185,0.804688 1.31836,0.804688 0.55097,0 0.91741,-0.144496 1.16211,-0.416016 0.2447,-0.27152 0.38477,-0.701967 0.38477,-1.326172 0,-0.136521 -0.0262,-0.262195 -0.0781,-0.380859 a 0.2362214,0.2362214 0 0 1 -0.006,-0.01563 c -0.0471,-0.133509 -0.11051,-0.245845 -0.19336,-0.34375 a 0.2362214,0.2362214 0 0 1 -0.008,-0.0078 c -0.0712,-0.09256 -0.15372,-0.1595 -0.25977,-0.208984 a 0.2362214,0.2362214 0 0 1 -0.0117,-0.0059 c -0.0379,-0.0202 -0.0758,-0.01663 -0.11329,-0.0293 0.0168,0.01999 0.0419,0.03096 0.0566,0.05273 0.12884,0.190461 0.17969,0.429461 0.17969,0.701172 0,0.415344 -0.0758,0.758141 -0.26758,1.011719 -0.19176,0.253577 -0.50097,0.382812 -0.8457,0.382812 -0.44899,0 -0.82508,-0.26503 -1,-0.691406 a 0.2362214,0.2362214 0 0 1 -0.002,-0.0059 c -0.18232,-0.482609 -0.25196,-1.252364 -0.25196,-2.36914 0,-1.01877 0.0889,-1.744084 0.31641,-2.220703 0.19765,-0.417245 0.58749,-0.664063 1.04883,-0.664063 0.27055,0 0.52036,0.144982 0.69141,0.373047 0.16555,0.220727 0.25586,0.477196 0.25585,0.742188 0,0.254797 -0.10074,0.517122 -0.24218,0.785156 0.0238,-0.0035 0.0399,0.01336 0.0664,0.0059 0.20276,-0.10441 0.34475,-0.200291 0.38868,-0.242187 0.11601,-0.147587 0.1914,-0.380843 0.1914,-0.730469 0,-0.481663 -0.13559,-0.802884 -0.4043,-1.033203 a 0.2362214,0.2362214 0 0 1 -0.004,-0.0059 c -0.27139,-0.247438 -0.6047,-0.369141 -1.04102,-0.369141 z m 10.03125,0 c -0.61889,0 -1.03773,0.271122 -1.35742,0.904297 -0.31969,0.633174 -0.49609,1.638219 -0.49609,2.998047 0,1.08051 0.1759,1.890424 0.49609,2.429687 0.28308,0.47457 0.63449,0.679688 1.14844,0.679688 0.57298,0 0.96843,-0.168585 1.25586,-0.503907 0.26588,-0.324001 0.40234,-0.738787 0.40234,-1.28125 0,-0.361703 -0.0837,-0.607433 -0.23242,-0.777343 a 0.2362214,0.2362214 0 0 1 -0.004,-0.0059 c -0.11726,-0.140723 -0.26943,-0.20361 -0.46679,-0.226562 0.1336,0.261638 0.22851,0.527848 0.22851,0.800781 0,0.324067 -0.11603,0.640171 -0.32422,0.931641 a 0.2362214,0.2362214 0 0 1 -0.002,0.0039 c -0.20792,0.280687 -0.45342,0.472656 -0.74609,0.472656 -0.41446,0 -0.77321,-0.221641 -0.96289,-0.589844 a 0.2362214,0.2362214 0 0 1 -0.002,-0.0078 c -0.18097,-0.384586 -0.24609,-0.953335 -0.24609,-1.757813 0,-1.13225 0.0881,-1.987982 0.2832,-2.591797 0.0975,-0.301907 0.22222,-0.544964 0.39453,-0.722656 0.17232,-0.177691 0.40251,-0.28125 0.64453,-0.28125 0.30648,0 0.58963,0.127776 0.75782,0.365235 0.16819,0.237459 0.23047,0.550684 0.23047,0.93164 0,0.4803 -0.17395,0.9037 -0.50977,1.207031 a 0.2362214,0.2362214 0 0 1 -0.0176,0.01367 l -0.46679,0.34375 c 0.049,-0.0203 0.0742,-0.05858 0.12695,-0.07617 a 0.2362214,0.2362214 0 0 1 0.002,0 c 0.22284,-0.0709 0.46765,-0.114749 0.73047,-0.134765 0.19579,-0.02175 0.42345,-0.01648 0.65039,-0.01172 0.0144,-0.198849 0.0293,-0.398136 0.0293,-0.576172 0,-0.871795 -0.15757,-1.520119 -0.44531,-1.957031 l -0.002,-0.002 c -0.26922,-0.398368 -0.60772,-0.578125 -1.09961,-0.578125 z m 5.39258,0 c -0.36379,0 -0.65401,0.171151 -0.93164,0.591797 a 0.2362214,0.2362214 0 0 1 -0.43359,-0.13086 v -0.376953 h -0.75586 c 0.0299,0.04229 0.0742,0.07418 0.0898,0.125 a 0.2362214,0.2362214 0 0 1 0.006,0.02344 c 0.0277,0.138657 0.0312,0.321794 0.0312,0.605469 V 93 c 0,0.283675 -0.004,0.465482 -0.0312,0.603516 a 0.2362214,0.2362214 0 0 1 -0.006,0.02344 c -0.0173,0.05637 -0.065,0.09284 -0.0996,0.138672 h 0.92578 c -0.0331,-0.0476 -0.0777,-0.08842 -0.0937,-0.144531 a 0.2362214,0.2362214 0 0 1 -0.006,-0.01758 c -0.027,-0.134947 -0.0332,-0.318739 -0.0332,-0.603516 v -4.613281 c 0,-0.304077 0.0663,-0.568313 0.23633,-0.761719 0.17004,-0.193406 0.4292,-0.283203 0.71094,-0.283203 0.27485,0 0.52211,0.06785 0.69726,0.236328 0.17515,0.168479 0.25,0.414963 0.25,0.683594 V 93 c 0,0.160723 -0.005,0.288792 -0.0156,0.394531 -1.1e-4,0.001 1e-4,0.0029 0,0.0039 -3.3e-4,0.07891 -0.002,0.143541 -0.0195,0.214843 -0.0155,0.06195 -0.0631,0.103447 -0.0996,0.152344 h 0.93164 c -0.0334,-0.04954 -0.0774,-0.09258 -0.0918,-0.152344 -0.0156,-0.06219 -0.0235,-0.125577 -0.0332,-0.21289 a 0.2362214,0.2362214 0 0 1 -0.002,-0.02539 V 93 88.845703 c 0,-0.444814 0.0576,-0.796583 0.20899,-1.066406 0.15139,-0.269823 0.43123,-0.4375 0.73828,-0.4375 0.37122,0 0.70071,0.155732 0.87305,0.451172 0.19669,0.322183 0.25586,0.791035 0.25586,1.457031 0,0.697901 -0.0868,1.509802 -0.25586,2.439453 -0.1662,0.904863 -0.2461,1.540813 -0.2461,1.867188 0,0.129073 0.0176,0.219167 0.0254,0.332031 0.0149,-0.154136 0.043,-0.31002 0.11914,-0.591797 0.0925,-0.342208 0.23036,-0.799833 0.41211,-1.373047 a 0.2362214,0.2362214 0 0 1 0,-0.002 c 0.36527,-1.104906 0.54493,-2.1264 0.54493,-3.0625 0,-0.734756 -0.13099,-1.259857 -0.35157,-1.580078 -0.22057,-0.320221 -0.51849,-0.46875 -0.98633,-0.46875 -0.42315,0 -0.79654,0.198128 -1.16601,0.662109 a 0.2362214,0.2362214 0 0 1 -0.39844,-0.04492 c -0.21016,-0.436485 -0.50279,-0.617187 -1,-0.617187 z m 10.4082,0 c -0.49319,0 -0.84819,0.159115 -1.13085,0.490234 -0.24993,0.299275 -0.375,0.661291 -0.375,1.126953 0,0.534789 0.1834,0.93412 0.58007,1.265625 7.7e-4,6.43e-4 0.001,0.0013 0.002,0.002 0.20729,0.144119 0.41075,0.282544 0.60937,0.417969 0.20708,0.141188 0.41346,0.287917 0.61914,0.4375 a 0.2362214,0.2362214 0 0 1 0.008,0.0059 c 0.48763,0.386034 0.75977,0.889091 0.75977,1.453125 0,0.346729 -0.12124,0.67033 -0.34766,0.93164 -0.22439,0.269282 -0.54387,0.419922 -0.89257,0.419922 -0.32408,0 -0.62381,-0.124055 -0.8418,-0.353516 A 0.2362214,0.2362214 0 0 1 178.28516,93 c -0.20371,-0.23766 -0.30664,-0.539749 -0.30664,-0.865234 0,-0.337317 0.12976,-0.651176 0.32031,-0.945313 -0.0485,-0.0061 -0.0838,-0.01563 -0.1543,-0.01563 -0.12866,0 -0.24755,0.05793 -0.39648,0.253906 a 0.2362214,0.2362214 0 0 1 -0.008,0.0098 c -0.1658,0.195947 -0.25,0.439264 -0.25,0.767578 0,0.563441 0.16616,0.954364 0.50196,1.242188 0.29822,0.24902 0.66685,0.375 1.14258,0.375 0.60501,0 1.02353,-0.189772 1.33203,-0.578125 0.26258,-0.354519 0.39648,-0.788308 0.39648,-1.332032 0,-0.636228 -0.1978,-1.14183 -0.60351,-1.564453 a 0.2362214,0.2362214 0 0 1 -0.004,-0.0039 c -0.0271,-0.0294 -0.15895,-0.143977 -0.35938,-0.296875 -0.20042,-0.152898 -0.47639,-0.353603 -0.82812,-0.603516 -0.4769,-0.337801 -0.76953,-0.720666 -0.76953,-1.154297 0,-0.272144 0.0933,-0.528594 0.27344,-0.720703 a 0.2362214,0.2362214 0 0 1 0.004,-0.0059 c 0.18859,-0.188589 0.44272,-0.291016 0.71094,-0.291016 0.31901,0 0.59679,0.07358 0.79687,0.253907 0.20009,0.180323 0.29102,0.450617 0.29102,0.75 0,0.223094 -0.12534,0.432023 -0.29492,0.652343 0.0109,4.16e-4 0.003,0.002 0.0156,0.002 0.20512,0 0.34704,-0.06624 0.48438,-0.230469 v -0.002 c 0.13898,-0.176211 0.21289,-0.398099 0.21289,-0.701172 0,-0.357395 -0.12178,-0.612654 -0.39844,-0.833985 a 0.2362214,0.2362214 0 0 1 -0.002,-0.002 c -0.27928,-0.2314 -0.63046,-0.349609 -1.08985,-0.349609 z m -4.7832,0.08398 c 0.0384,0.0432 0.10402,0.05663 0.13281,0.107422 0.10347,0.182493 0.14454,0.400673 0.14454,0.646485 V 93 c 0,0.253981 -0.0417,0.476004 -0.14649,0.660156 -0.0235,0.04134 -0.0615,0.06943 -0.0918,0.105469 h 1.15821 c -0.0324,-0.0373 -0.0724,-0.06826 -0.0977,-0.111328 C 175.51163,93.470784 175.46875,93.250658 175.46875,93 v -6.105469 z m -54.33789,1.234375 c 0.0124,0.0039 0.0397,0.01172 0.041,0.01172 -0.0119,-0.0054 -0.0278,-0.0061 -0.041,-0.01172 z m 43.23047,3.316406 c -0.0828,0.113569 -0.82668,0.292175 -0.33594,0.171876 0.0493,0.03366 0.10376,0.08594 0.14649,0.08594 0.0469,0 0.0691,-0.0071 0.11718,-0.06055 a 0.2362214,0.2362214 0 0 1 0.008,-0.0098 c 0.0617,-0.06169 0.0703,-0.09332 0.0703,-0.125 0,-0.06239 -0.0144,-0.07203 -0.006,-0.0625 z m -30.07617,0.002 c 0.0243,0.06635 -1.2839,0.45603 -0.33594,0.169922 0.0493,0.03366 0.10377,0.08594 0.14648,0.08594 0.0469,0 0.0691,-0.0071 0.11719,-0.06055 a 0.2362214,0.2362214 0 0 1 0.008,-0.0098 c 0.0617,-0.06169 0.0703,-0.0933 0.0703,-0.125 0,-0.0616 -0.014,-0.06954 -0.006,-0.06055 z m 29.64648,0.111328 c 0,6.51e-4 0.013,0.0098 0.0195,0.01367 -0.008,-0.0029 -0.0116,-0.01015 -0.0195,-0.01367 z m -19.73047,2.511718 c 0.001,0.002 0.0495,0.04102 0.0723,0.05859 -0.0307,-0.01481 -0.043,-0.04261 -0.0723,-0.05859 z m -13.79687,0.816407 c 0.11056,0.150363 0.23271,0.230469 0.43359,0.230469 0.10801,0 0.15644,-0.02361 0.16602,-0.03125 0.01,-0.0076 0.0156,-0.0041 0.0156,-0.06641 0,-0.07384 -0.0148,-0.08912 -0.0137,-0.08789 0.001,0.0012 -0.004,-0.0098 -0.0703,-0.0098 0.0216,0 -0.0216,0.002 -0.0762,0.01758 -0.077,0.022 -0.14251,0.03711 -0.2168,0.03711 -0.084,0 -0.16777,-0.04101 -0.23828,-0.08984 z m 30.07812,0.002 c 0.10989,0.149037 0.2315,0.228516 0.43164,0.228516 0.10801,0 0.15645,-0.02361 0.16602,-0.03125 0.01,-0.0076 0.0156,-0.0041 0.0156,-0.06641 0,-0.07384 -0.0148,-0.08912 -0.0137,-0.08789 0.001,0.0012 -0.004,-0.0098 -0.0703,-0.0098 0.0216,0 -0.0185,0.0017 -0.0742,0.01758 -0.0782,0.02235 -0.14446,0.03711 -0.21875,0.03711 -0.0831,0 -0.16614,-0.03974 -0.23633,-0.08789 z m 12.45118,0.002 c 0.10787,0.14851 0.22654,0.226563 0.42187,0.226563 0.11367,0 0.16816,-0.02429 0.17969,-0.0332 0.0115,-0.0089 0.0156,-0.0037 0.0156,-0.06445 0,-0.0723 -0.0138,-0.08416 -0.0137,-0.08398 1.7e-4,1.71e-4 -0.0117,-0.01367 -0.084,-0.01367 0.0216,0 -0.0185,0.0016 -0.0742,0.01758 -0.0692,0.02241 -0.13418,0.03711 -0.20508,0.03711 -0.0839,0 -0.16837,-0.03834 -0.24023,-0.08594 z"
       transform="skewX(-13.884716)" />
  </g>
</svg>
