<?xml version="1.0" encoding="UTF-8" standalone="no"?>
<svg
   xmlns:dc="http://purl.org/dc/elements/1.1/"
   xmlns:cc="http://creativecommons.org/ns#"
   xmlns:rdf="http://www.w3.org/1999/02/22-rdf-syntax-ns#"
   xmlns:svg="http://www.w3.org/2000/svg"
   xmlns="http://www.w3.org/2000/svg"
   xmlns:sodipodi="http://sodipodi.sourceforge.net/DTD/sodipodi-0.dtd"
   xmlns:inkscape="http://www.inkscape.org/namespaces/inkscape"
   width="28mm"
   height="28mm"
   viewBox="0 0 28 28"
   version="1.1"
   id="svg2886"
   inkscape:version="1.0.1 (3bc2e813f5, 2020-09-07, custom)"
   sodipodi:docname="alch_sym_04.svg">
  <defs
     id="defs2880" />
  <sodipodi:namedview
     id="base"
     pagecolor="#ffffff"
     bordercolor="#666666"
     borderopacity="1.0"
     inkscape:pageopacity="0.0"
     inkscape:pageshadow="2"
     inkscape:zoom="0.35"
     inkscape:cx="-256.11189"
     inkscape:cy="-183.18974"
     inkscape:document-units="mm"
     inkscape:current-layer="layer1"
     inkscape:document-rotation="0"
     showgrid="false"
     fit-margin-top="0"
     fit-margin-left="0"
     fit-margin-right="0"
     fit-margin-bottom="0"
     inkscape:window-width="1920"
     inkscape:window-height="1021"
     inkscape:window-x="0"
     inkscape:window-y="0"
     inkscape:window-maximized="1" />
  <metadata
     id="metadata2883">
    <rdf:RDF>
      <cc:Work
         rdf:about="">
        <dc:format>image/svg+xml</dc:format>
        <dc:type
           rdf:resource="http://purl.org/dc/dcmitype/StillImage" />
        <dc:title></dc:title>
      </cc:Work>
    </rdf:RDF>
  </metadata>
  <g
     inkscape:label="Layer 1"
     inkscape:groupmode="layer"
     id="layer1"
     transform="translate(-173.59627,-196.63562)">
    <path
       id="path849-7"
       style="fill:#6b200d;fill-opacity:1;stroke-width:0.264583"
       d="m 185.01215,199.38434 -4.43177,0.0724 -4.43177,0.0724 -0.0822,0.99218 -0.0822,0.99219 h 1.97404 1.97455 l 0.55501,0.94155 c 0.30542,0.51764 0.55552,1.05342 0.55552,1.19062 0,0.1372 -0.59532,0.24908 -1.32292,0.24908 h -1.32291 v 0.92604 0.92605 h 1.96267 c 1.94315,0 1.9683,0.009 2.51354,0.89141 0.79743,1.29028 0.71175,1.48984 -0.63976,1.48984 -1.18162,0 -1.19062,0.007 -1.19062,0.91467 v 0.91415 l 1.91823,0.078 1.91823,0.0775 3.40238,5.88698 v 5.3e-4 c 1.87128,3.23784 3.45302,5.88698 3.51503,5.88698 0.0884,0 0.91743,-0.48455 1.63659,-0.95601 0.0482,-0.0316 -1.29129,-2.43189 -2.97656,-5.33456 -1.68527,-2.90267 -3.0639,-5.3537 -3.0639,-5.4467 0,-0.093 1.16464,-0.16898 2.58847,-0.16898 h 2.58899 l 0.46974,0.79479 c 1.3397,2.26794 4.87703,2.00034 5.89938,-0.44649 0.85397,-2.04383 -0.41657,-4.26111 -2.58175,-4.50516 -1.46532,-0.16516 -2.64571,0.372 -3.31763,1.50947 l -0.46974,0.7953 h -3.24476 -3.24528 l -0.53433,-1.04799 c -0.29401,-0.57628 -0.53434,-1.11203 -0.53434,-1.19063 0,-0.0785 0.53578,-0.14263 1.19062,-0.14263 1.18463,0 1.19063,-0.005 1.19063,-0.92604 v -0.92604 h -1.8371 -1.83709 l -0.67231,-1.12448 -0.67232,-1.12448 1.31879,-0.0801 1.31878,-0.0801 v -1.0511 z m 10.78901,8.47907 c 0.88665,0 1.38182,0.42648 1.38182,1.19063 0,0.30559 -0.14319,0.6987 -0.31781,0.87333 -0.52708,0.52707 -1.74501,0.38331 -2.08152,-0.24547 -0.46164,-0.86259 0.0732,-1.81849 1.01751,-1.81849 z" />
  </g>
</svg>
