<?xml version="1.0" encoding="UTF-8" standalone="no"?>
<svg
   xmlns:dc="http://purl.org/dc/elements/1.1/"
   xmlns:cc="http://creativecommons.org/ns#"
   xmlns:rdf="http://www.w3.org/1999/02/22-rdf-syntax-ns#"
   xmlns:svg="http://www.w3.org/2000/svg"
   xmlns="http://www.w3.org/2000/svg"
   xmlns:sodipodi="http://sodipodi.sourceforge.net/DTD/sodipodi-0.dtd"
   xmlns:inkscape="http://www.inkscape.org/namespaces/inkscape"
   width="28mm"
   height="28mm"
   viewBox="0 0 28 28"
   version="1.1"
   id="svg1032"
   inkscape:version="1.0.1 (3bc2e813f5, 2020-09-07, custom)"
   sodipodi:docname="alch_sym_01.svg">
  <defs
     id="defs1026" />
  <sodipodi:namedview
     id="base"
     pagecolor="#ffffff"
     bordercolor="#666666"
     borderopacity="1.0"
     inkscape:pageopacity="0.0"
     inkscape:pageshadow="2"
     inkscape:zoom="3.959798"
     inkscape:cx="72.944264"
     inkscape:cy="87.367247"
     inkscape:document-units="mm"
     inkscape:current-layer="layer1"
     inkscape:document-rotation="0"
     showgrid="false"
     fit-margin-top="0"
     fit-margin-left="0"
     fit-margin-right="0"
     fit-margin-bottom="0"
     inkscape:window-width="1920"
     inkscape:window-height="1021"
     inkscape:window-x="0"
     inkscape:window-y="0"
     inkscape:window-maximized="1" />
  <metadata
     id="metadata1029">
    <rdf:RDF>
      <cc:Work
         rdf:about="">
        <dc:format>image/svg+xml</dc:format>
        <dc:type
           rdf:resource="http://purl.org/dc/dcmitype/StillImage" />
        <dc:title></dc:title>
      </cc:Work>
    </rdf:RDF>
  </metadata>
  <g
     inkscape:label="Layer 1"
     inkscape:groupmode="layer"
     id="layer1"
     transform="translate(-100.09298,-59.172192)">
    <path
       id="path849-1"
       style="fill:#6b200d;fill-opacity:1;stroke-width:0.264583"
       d="m 114.15217,61.28486 c -4.23012,0 -7.72073,1.88865 -10.00145,5.41155 -1.33785,2.0665 -1.8702,3.97562 -1.84485,6.61407 0.0533,5.55096 3.80956,10.23254 9.14104,11.39207 2.05104,0.44607 2.86317,0.46444 4.81521,0.10904 3.67345,-0.66882 6.80543,-3.08329 8.5323,-6.57738 1.37304,-2.78656 1.47805,-6.63647 0.12454,-10.08827 -2.13398,-4.36063 -6.05769,-6.86108 -10.76679,-6.86108 z m -0.4718,2.05 c 0.47137,0.0288 0.61839,0.26745 1.05937,1.125 0.49477,0.96218 0.59386,1.50928 0.51624,2.85099 -0.0827,1.43025 -0.35685,2.1816 -1.98075,5.42395 -1.03677,2.07004 -2.02737,4.22412 -2.2009,4.78679 -0.3824,1.23989 -0.22691,3.20902 0.34364,4.35271 0.23105,0.46314 0.33984,0.84192 0.24185,0.84181 -0.761,-7.93e-4 -3.55686,-1.72893 -4.58525,-2.83394 -1.47386,-1.58368 -2.16336,-2.87172 -2.60759,-4.87154 -1.18769,-5.34662 3.11777,-11.17178 8.61084,-11.64993 0.25201,-0.0219 0.44542,-0.0355 0.60255,-0.0258 z m 3.03289,0.3514 c 0.24081,-0.0104 0.78588,0.19975 1.70429,0.62735 1.88022,0.8754 3.65176,2.72337 4.64468,4.84518 0.71114,1.51968 0.82398,2.05566 0.81958,3.88969 -0.009,3.91086 -2.02211,7.17115 -5.4777,8.87233 -0.89939,0.44277 -2.24162,0.877 -2.98276,0.96479 l -1.34772,0.15969 -0.5979,-1.23611 c -0.4791,-0.98969 -0.57739,-1.56579 -0.49299,-2.89129 0.0912,-1.43208 0.3897,-2.2243 2.21278,-5.86941 2.03678,-4.07237 2.10737,-4.27586 2.10737,-6.0818 0,-1.34323 -0.13199,-2.06966 -0.46922,-2.58434 -0.29779,-0.45448 -0.36123,-0.68565 -0.12041,-0.69608 z" />
  </g>
</svg>
