<?xml version="1.0" encoding="UTF-8" standalone="no"?>
<svg
   xmlns:dc="http://purl.org/dc/elements/1.1/"
   xmlns:cc="http://creativecommons.org/ns#"
   xmlns:rdf="http://www.w3.org/1999/02/22-rdf-syntax-ns#"
   xmlns:svg="http://www.w3.org/2000/svg"
   xmlns="http://www.w3.org/2000/svg"
   xmlns:sodipodi="http://sodipodi.sourceforge.net/DTD/sodipodi-0.dtd"
   xmlns:inkscape="http://www.inkscape.org/namespaces/inkscape"
   width="28mm"
   height="28mm"
   viewBox="0 0 28 28"
   version="1.1"
   id="svg2260"
   inkscape:version="1.0.1 (3bc2e813f5, 2020-09-07, custom)"
   sodipodi:docname="alch_sym_03.svg">
  <defs
     id="defs2254" />
  <sodipodi:namedview
     id="base"
     pagecolor="#ffffff"
     bordercolor="#666666"
     borderopacity="1.0"
     inkscape:pageopacity="0.0"
     inkscape:pageshadow="2"
     inkscape:zoom="0.35"
     inkscape:cx="177.81292"
     inkscape:cy="-120.34875"
     inkscape:document-units="mm"
     inkscape:current-layer="layer1"
     inkscape:document-rotation="0"
     showgrid="false"
     fit-margin-top="0"
     fit-margin-left="0"
     fit-margin-right="0"
     fit-margin-bottom="0"
     inkscape:window-width="1920"
     inkscape:window-height="1021"
     inkscape:window-x="0"
     inkscape:window-y="0"
     inkscape:window-maximized="1" />
  <metadata
     id="metadata2257">
    <rdf:RDF>
      <cc:Work
         rdf:about="">
        <dc:format>image/svg+xml</dc:format>
        <dc:type
           rdf:resource="http://purl.org/dc/dcmitype/StillImage" />
        <dc:title></dc:title>
      </cc:Work>
    </rdf:RDF>
  </metadata>
  <g
     inkscape:label="Layer 1"
     inkscape:groupmode="layer"
     id="layer1"
     transform="translate(-58.786998,-180.00894)">
    <path
       id="path849-9"
       style="fill:#6b200d;fill-opacity:1;stroke-width:0.264583"
       d="m 59.002567,182.00597 0.503327,0.8599 c 0.276921,0.47294 3.406119,5.88785 6.9541,12.03337 3.547985,6.14552 6.475115,11.1461 6.504515,11.1125 0.27143,-0.31073 13.606919,-23.62439 13.606919,-23.78821 0,-0.11968 -6.203239,-0.21756 -13.784689,-0.21756 z m 6.876581,2.15956 c 1.848236,-0.005 4.383752,0.001 7.160803,0.0202 l 10.098608,0.0693 -1.15083,1.98437 c -0.632818,1.0914 -2.796458,4.84188 -4.80798,8.33438 -2.011499,3.4925 -3.80198,6.56364 -3.979079,6.8249 -0.280738,0.41414 -0.971429,-0.65012 -5.389336,-8.30492 -2.787002,-4.82899 -5.02299,-8.82423 -4.968691,-8.87852 0.02716,-0.0272 1.188274,-0.0443 3.036505,-0.0496 z" />
  </g>
</svg>
