<?xml version="1.0" encoding="UTF-8" standalone="no"?>
<svg
   xmlns:dc="http://purl.org/dc/elements/1.1/"
   xmlns:cc="http://creativecommons.org/ns#"
   xmlns:rdf="http://www.w3.org/1999/02/22-rdf-syntax-ns#"
   xmlns:svg="http://www.w3.org/2000/svg"
   xmlns="http://www.w3.org/2000/svg"
   xmlns:sodipodi="http://sodipodi.sourceforge.net/DTD/sodipodi-0.dtd"
   xmlns:inkscape="http://www.inkscape.org/namespaces/inkscape"
   width="36.904732mm"
   height="20.901569mm"
   viewBox="0 0 36.904732 20.901569"
   version="1.1"
   id="svg3512"
   inkscape:version="1.0.1 (3bc2e813f5, 2020-09-07, custom)"
   sodipodi:docname="alch_sym_05.svg">
  <defs
     id="defs3506" />
  <sodipodi:namedview
     id="base"
     pagecolor="#ffffff"
     bordercolor="#666666"
     borderopacity="1.0"
     inkscape:pageopacity="0.0"
     inkscape:pageshadow="2"
     inkscape:zoom="0.35"
     inkscape:cx="-653.11592"
     inkscape:cy="-280.50098"
     inkscape:document-units="mm"
     inkscape:current-layer="layer1"
     inkscape:document-rotation="0"
     showgrid="false"
     fit-margin-top="0"
     fit-margin-left="0"
     fit-margin-right="0"
     fit-margin-bottom="0"
     inkscape:window-width="1920"
     inkscape:window-height="1021"
     inkscape:window-x="0"
     inkscape:window-y="0"
     inkscape:window-maximized="1" />
  <metadata
     id="metadata3509">
    <rdf:RDF>
      <cc:Work
         rdf:about="">
        <dc:format>image/svg+xml</dc:format>
        <dc:type
           rdf:resource="http://purl.org/dc/dcmitype/StillImage" />
        <dc:title></dc:title>
      </cc:Work>
    </rdf:RDF>
  </metadata>
  <g
     inkscape:label="Layer 1"
     inkscape:groupmode="layer"
     id="layer1"
     transform="translate(-278.63692,-222.38255)">
    <path
       id="path849-73"
       style="fill:#6b200d;fill-opacity:1;stroke-width:0.264583"
       d="m 289.21044,222.38255 -5.2865,5.29167 -5.28702,5.29167 5.15473,5.15885 c 2.83488,2.83768 5.21596,5.15938 5.29166,5.15938 0.0757,0 2.27846,-2.14313 4.89479,-4.7625 l 4.75682,-4.7625 h 5.16351 5.16403 l 0.32504,0.73432 c 0.45167,1.0204 1.63574,1.64693 3.11247,1.64693 1.06016,0 1.37437,-0.13207 2.14199,-0.89969 0.76763,-0.76762 0.89969,-1.08183 0.89969,-2.14198 0,-0.69608 -0.19875,-1.57848 -0.45166,-2.0066 -0.48157,-0.81526 -1.77906,-1.56631 -2.70577,-1.56631 -1.02216,0 -2.40342,0.75815 -2.86804,1.57458 l -0.45683,0.80305 -5.15679,0.002 -5.15679,0.002 -4.76767,-4.7625 z m -0.12713,2.7802 3.90002,3.90053 3.90054,3.90054 -3.83077,3.83749 c -2.10692,2.11069 -3.89329,3.83749 -3.96979,3.83749 -0.0765,0 -1.86338,-1.7268 -3.97029,-3.83749 l -3.83078,-3.83749 3.90054,-3.90054 z m 23.12211,6.49159 c 0.40482,0.0166 0.82023,0.21686 1.07228,0.57671 0.53004,0.75675 0.51968,0.8916 -0.1173,1.52859 -0.63699,0.63698 -0.77184,0.64735 -1.52859,0.1173 -0.63974,-0.44808 -0.77596,-1.41099 -0.27079,-1.91616 0.22101,-0.22101 0.52954,-0.31936 0.8444,-0.30644 z" />
  </g>
</svg>
