<?xml version="1.0" encoding="UTF-8" standalone="no"?>
<svg
   xmlns:dc="http://purl.org/dc/elements/1.1/"
   xmlns:cc="http://creativecommons.org/ns#"
   xmlns:rdf="http://www.w3.org/1999/02/22-rdf-syntax-ns#"
   xmlns:svg="http://www.w3.org/2000/svg"
   xmlns="http://www.w3.org/2000/svg"
   xmlns:sodipodi="http://sodipodi.sourceforge.net/DTD/sodipodi-0.dtd"
   xmlns:inkscape="http://www.inkscape.org/namespaces/inkscape"
   width="27.163939mm"
   height="22.48958mm"
   viewBox="0 0 27.163939 22.48958"
   version="1.1"
   id="svg1634"
   inkscape:version="1.0.1 (3bc2e813f5, 2020-09-07, custom)"
   sodipodi:docname="alch_sym_02.svg">
  <defs
     id="defs1628" />
  <sodipodi:namedview
     id="base"
     pagecolor="#ffffff"
     bordercolor="#666666"
     borderopacity="1.0"
     inkscape:pageopacity="0.0"
     inkscape:pageshadow="2"
     inkscape:zoom="0.35"
     inkscape:cx="562.762"
     inkscape:cy="-31.785726"
     inkscape:document-units="mm"
     inkscape:current-layer="layer1"
     inkscape:document-rotation="0"
     showgrid="false"
     fit-margin-top="0"
     fit-margin-left="0"
     fit-margin-right="0"
     fit-margin-bottom="0"
     inkscape:window-width="1920"
     inkscape:window-height="1021"
     inkscape:window-x="0"
     inkscape:window-y="0"
     inkscape:window-maximized="1" />
  <metadata
     id="metadata1631">
    <rdf:RDF>
      <cc:Work
         rdf:about="">
        <dc:format>image/svg+xml</dc:format>
        <dc:type
           rdf:resource="http://purl.org/dc/dcmitype/StillImage" />
        <dc:title></dc:title>
      </cc:Work>
    </rdf:RDF>
  </metadata>
  <g
     inkscape:label="Layer 1"
     inkscape:groupmode="layer"
     id="layer1"
     transform="translate(43.064112,-156.57664)">
    <path
       id="path849-5"
       style="opacity:1;fill:#6b200d;fill-opacity:1;stroke-width:0.264583"
       d="m -38.925075,156.57664 v 1.05833 c 0,0.76435 0.110244,1.05834 0.396875,1.05834 0.334375,0 0.396875,0.59891 0.396875,3.80338 v 3.80339 l -2.182813,1.06195 c -2.817627,1.37069 -3.858763,2.20081 -1.256771,1.00201 1.091407,-0.50285 2.3118,-0.99239 2.71198,-1.08779 l 0.727604,-0.17364 v 4.92373 c 0,4.20004 -0.05832,4.92322 -0.396875,4.92322 -0.273402,0 -0.396875,0.27455 -0.396875,0.88211 0,0.48507 0.07921,0.96134 0.176218,1.05834 0.09701,0.097 0.870918,0.17621 1.719791,0.17621 h 1.543574 v -1.05833 c 0,-0.58208 -0.11906,-1.05833 -0.264583,-1.05833 -0.167571,0 -0.264584,-1.94028 -0.264584,-5.29167 0,-2.91041 0.0893,-5.29177 0.198438,-5.29218 0.109143,-5.3e-4 1.238919,-0.12873 2.510959,-0.28474 2.178049,-0.26713 6.234232,-0.0224 7.465696,0.4501 0.348097,0.13358 0.408241,0.90892 0.408241,5.28753 0,3.24433 -0.09729,5.13096 -0.264582,5.13096 -0.145521,0 -0.264585,0.47625 -0.264585,1.05833 v 1.05833 h 1.5875 1.5875 v -1.03611 c 0,-0.56995 -0.121839,-1.07695 -0.270779,-1.12654 -0.17502,-0.0583 -0.24521,-1.79119 -0.198441,-4.89893 l 0.0723,-4.80849 1.918229,0.80098 c 1.055021,0.4406 1.918231,0.95451 1.918231,1.14205 0,0.33352 1.10054,1.20014 1.51205,1.19114 0.11426,-0.003 0.59599,-0.59895 1.07074,-1.32498 l 0.862989,-1.31982 -0.849039,-0.51676 c -0.62057,-0.37739 -0.9407,-0.44005 -1.19011,-0.23306 -0.24918,0.20681 -0.788911,0.10563 -1.99884,-0.37569 -0.91141,-0.36256 -2.043699,-0.74259 -2.51664,-0.84439 l -0.859899,-0.185 v -3.41892 c 0,-2.10265 0.101849,-3.41839 0.26459,-3.41839 0.14552,0 0.26458,-0.47626 0.26458,-1.05834 v -1.05833 h -1.5875 -1.5875 v 1.05833 c 0,0.58208 0.119063,1.05834 0.264584,1.05834 0.16166,0 0.264582,1.23222 0.264582,3.16776 v 3.16828 l -2.447395,-0.15502 c -2.178492,-0.13767 -4.702008,0.0669 -7.276043,0.58962 l -0.859896,0.17467 v -3.47266 c 0,-2.13872 0.101635,-3.47265 0.264584,-3.47265 0.145523,0 0.264583,-0.47626 0.264583,-1.05834 v -1.05833 h -1.719792 z" />
  </g>
</svg>
