<svg id="Layer_1" data-name="Layer 1" xmlns="http://www.w3.org/2000/svg" viewBox="0 0 1898 1585"><defs><style>.cls-1{opacity:0.5;}.cls-2,.cls-4,.cls-5{fill:none;stroke:#c99d66;stroke-miterlimit:10;}.cls-2{stroke-width:4.18px;}.cls-3{fill:#c99d66;}.cls-4{stroke-width:5.72px;}.cls-5{stroke-width:6.05px;}</style></defs><title>The_alchemist_chocolate_logo_complete</title><g class="cls-1"><polygon class="cls-2" points="942.96 214.41 534.42 383.63 365.2 792.16 534.42 1200.7 942.96 1369.92 1351.49 1200.7 1520.71 792.16 1351.49 383.63 942.96 214.41"/><line class="cls-2" x1="1351.49" y1="383.63" x2="942.96" y2="1369.92"/><line class="cls-2" x1="534.42" y1="383.63" x2="942.96" y2="1369.92"/><line class="cls-2" x1="534.42" y1="1200.7" x2="942.96" y2="214.41"/><line class="cls-2" x1="1351.49" y1="1200.7" x2="942.96" y2="214.41"/><line class="cls-2" x1="1520.71" y1="792.16" x2="541.11" y2="380.86"/><line class="cls-2" x1="534.42" y1="1200.7" x2="1520.71" y2="792.16"/><line class="cls-2" x1="1351.49" y1="1200.7" x2="365.2" y2="792.16"/><line class="cls-2" x1="1351.49" y1="383.63" x2="365.2" y2="792.16"/></g><path class="cls-3" d="M537.38,1044.14q-22.05,0-37.11-9.65a60.5,60.5,0,0,1-22.76-26.69q-7.71-17-7.7-39.09v-1.94q0-22.24,8-39.25a63.36,63.36,0,0,1,22.71-26.64q14.7-9.64,34.5-9.64,15.32,0,26.38,4.28a66,66,0,0,1,19.65,11.74v28.89H570.65l-1-23.68a54.85,54.85,0,0,0-9.44-5.72,49.65,49.65,0,0,0-11-3.62A69.48,69.48,0,0,0,535,901.85q-16.23,0-28.12,8.22a53.28,53.28,0,0,0-18.37,22.76q-6.5,14.55-6.49,33.74v2.14q0,19.8,6.59,34.4a51,51,0,0,0,19,22.56q12.4,7.95,29.86,8a69.27,69.27,0,0,0,18.12-2.35,52.07,52.07,0,0,0,14.75-6.23l1-22.45h10.31v29.6a70,70,0,0,1-20.47,8.93A92.69,92.69,0,0,1,537.38,1044.14Z"/><path class="cls-3" d="M599.44,1042v-8.88l16.63-1.33V893.08l-16.63-1.33v-9h28.88v68.08a40.35,40.35,0,0,1,14.55-15.72q9.14-5.61,21.48-5.62,17.46,0,26.8,10.77t9.34,33.64v57.87l16.63,1.33V1042H671.6v-8.88l16.64-1.33V973.71q0-18.06-7-25.87T661.6,940q-13.47,0-21.69,7.55a40.94,40.94,0,0,0-11.59,19.6v64.61l16.64,1.33V1042Z"/><path class="cls-3" d="M783.06,1044.14q-14.89,0-25.87-7.09a47.32,47.32,0,0,1-17.05-19.7q-6.07-12.61-6.07-28.84v-3.37q0-16.23,6.07-28.78a47.69,47.69,0,0,1,17.05-19.7q11-7.14,25.67-7.15t25.77,7.15a47.74,47.74,0,0,1,17,19.65q6.08,12.51,6.07,28.83v3.37q0,16.34-6.07,28.89a47.36,47.36,0,0,1-17,19.65Q797.65,1044.15,783.06,1044.14Zm0-10.21a31.91,31.91,0,0,0,19.5-6,38.47,38.47,0,0,0,12.55-16.33,58.25,58.25,0,0,0,4.39-23.07v-3.37a58,58,0,0,0-4.39-23,38.34,38.34,0,0,0-12.6-16.33q-8.22-6-19.65-6t-19.65,6a38,38,0,0,0-12.56,16.33,58.68,58.68,0,0,0-4.33,23v3.37a58.86,58.86,0,0,0,4.33,23.12,38.05,38.05,0,0,0,12.56,16.28Q771.43,1033.94,783.06,1033.93Z"/><path class="cls-3" d="M899,1044.14a43.33,43.33,0,0,1-24.35-6.94,46.9,46.9,0,0,1-16.54-19.39q-6-12.45-6-28.89v-4.29q0-16.12,5.77-28.58a46.22,46.22,0,0,1,16.28-19.49q10.51-7,24.7-7a51.83,51.83,0,0,1,22.87,4.85,52.55,52.55,0,0,1,16.74,12.51l.2,25H928.51l-1.63-20.61a36.51,36.51,0,0,0-11.94-8.43,38.8,38.8,0,0,0-15.72-3A29.87,29.87,0,0,0,881,945.64a37.84,37.84,0,0,0-12.2,16,58.1,58.1,0,0,0-4.34,23v4.29q0,13.47,4.29,23.63a36.35,36.35,0,0,0,12,15.77,30.52,30.52,0,0,0,18.38,5.61q12.35,0,20.62-6.48t10-19.14h10.92l.2.62a39,39,0,0,1-6.17,18.37,35.52,35.52,0,0,1-14.29,12.4Q911.37,1044.14,899,1044.14Z"/><path class="cls-3" d="M1012.11,1044.14q-14.91,0-25.87-7.09a47.32,47.32,0,0,1-17-19.7q-6.08-12.61-6.07-28.84v-3.37q0-16.23,6.07-28.78a47.69,47.69,0,0,1,17-19.7q11-7.14,25.67-7.15t25.77,7.15a47.74,47.74,0,0,1,17,19.65q6.07,12.51,6.07,28.83v3.37q0,16.34-6.07,28.89a47.36,47.36,0,0,1-17,19.65Q1026.71,1044.15,1012.11,1044.14Zm0-10.21a31.91,31.91,0,0,0,19.5-6,38.47,38.47,0,0,0,12.55-16.33,58.25,58.25,0,0,0,4.39-23.07v-3.37a58,58,0,0,0-4.39-23,38.28,38.28,0,0,0-12.61-16.33q-8.21-6-19.64-6t-19.65,6a38,38,0,0,0-12.56,16.33,58.68,58.68,0,0,0-4.33,23v3.37a58.86,58.86,0,0,0,4.33,23.12,38.05,38.05,0,0,0,12.56,16.28Q1000.48,1033.94,1012.11,1033.93Z"/><path class="cls-3" d="M1075.7,1042v-8.88l16.64-1.33V893.08l-16.64-1.33v-9h28.89v149l16.64,1.33V1042Z"/><path class="cls-3" d="M1173.69,1044.14q-15.72,0-24.6-8.37t-8.88-22.66a28.56,28.56,0,0,1,5.92-17.91q5.92-7.71,16.79-12t25.78-4.28h22.86V966.26q0-11.94-7.09-19.24t-21.39-7.3a38,38,0,0,0-14.44,2.6,40.86,40.86,0,0,0-11.08,6.59l-1,16.84h-10.1V942.68a55.39,55.39,0,0,1,16.23-9.64,56.6,56.6,0,0,1,20.62-3.53q19.49,0,30,9.8t10.52,27.15v53.29c0,2.17.06,4.33.2,6.48s.37,4.27.72,6.38l13.16.51V1042H1213.8q-1.21-6-1.68-9.7a81.42,81.42,0,0,1-.56-8.27,47,47,0,0,1-15.92,14.5A43.78,43.78,0,0,1,1173.69,1044.14Zm1.43-10.72a41.73,41.73,0,0,0,21.48-6,36.83,36.83,0,0,0,15-15.87V988.31h-23q-16.93,0-26.54,7.3t-9.59,17.91a18.45,18.45,0,0,0,6.12,14.39Q1164.72,1033.43,1175.12,1033.42Z"/><path class="cls-3" d="M1293.73,1043.94q-11.64,0-18.07-7.2t-6.43-23.22V941.46h-19.09v-9.9h19.09V903.18h12.25v28.38h25.72v9.9h-25.72v72.06q0,11,3.93,15.87a12.78,12.78,0,0,0,10.46,4.85,50.06,50.06,0,0,0,6.84-.46l6.94-1,1.84,8.78a50.86,50.86,0,0,1-8.37,1.73A72.35,72.35,0,0,1,1293.73,1043.94Z"/><path class="cls-3" d="M1375,1044.14a45.57,45.57,0,0,1-25-6.89,47.11,47.11,0,0,1-17-19.09q-6.12-12.2-6.12-28.12v-5.61q0-15.82,6.12-28.22a49.87,49.87,0,0,1,16.59-19.55,40.47,40.47,0,0,1,23.32-7.15q13.58,0,23.22,5.82A38.22,38.22,0,0,1,1411,951.71q5.14,10.57,5.15,24.86V987h-76.55l-.21,4.49a52.65,52.65,0,0,0,4.54,21.84,36.44,36.44,0,0,0,12.46,15.11,32,32,0,0,0,18.63,5.51,47.12,47.12,0,0,0,18.32-3.31,45.82,45.82,0,0,0,13.93-9l5.21,8.37a53.79,53.79,0,0,1-15.57,10.16Q1387.74,1044.15,1375,1044.14Zm-34.61-67.37h63.49v-3.06a39.54,39.54,0,0,0-3.72-17.4,29,29,0,0,0-10.62-12.1,30.27,30.27,0,0,0-16.59-4.39,27.72,27.72,0,0,0-15.82,4.75,35.86,35.86,0,0,0-11.48,13,48.79,48.79,0,0,0-5.46,18.63Z"/><circle class="cls-3" cx="525.74" cy="967.69" r="9.39"/><circle class="cls-3" cx="782.91" cy="986.88" r="9.39"/><path class="cls-3" d="M817.41,674.07v-8.88l16.64-1.33V525.15l-16.64-1.33v-9H846.3v149l16.63,1.33v8.88Z"/><path class="cls-3" d="M927.75,676.21a43.33,43.33,0,0,1-24.35-6.94,46.75,46.75,0,0,1-16.53-19.39q-6-12.45-6-28.89v-4.28q0-16.12,5.76-28.58a46.31,46.31,0,0,1,16.28-19.5q10.51-7,24.71-7a51.81,51.81,0,0,1,22.86,4.85,52.41,52.41,0,0,1,16.74,12.5l.2,25h-10.2l-1.64-20.62a36.38,36.38,0,0,0-11.94-8.42,38.64,38.64,0,0,0-15.72-3,29.87,29.87,0,0,0-18.27,5.82,37.83,37.83,0,0,0-12.2,16,58.11,58.11,0,0,0-4.33,23V621q0,13.49,4.28,23.63a36.29,36.29,0,0,0,12.05,15.77A30.43,30.43,0,0,0,927.85,666q12.35,0,20.62-6.48t10-19.14H969.4l.2.61a38.87,38.87,0,0,1-6.18,18.37,35.39,35.39,0,0,1-14.29,12.4Q940.1,676.21,927.75,676.21Z"/><path class="cls-3" d="M987,674.07v-8.88l16.64-1.33V525.15L987,523.82v-9h28.89v68.08a40.33,40.33,0,0,1,14.54-15.72q9.13-5.61,21.49-5.61,17.45,0,26.79,10.77T1088,606v57.87l16.64,1.33v8.88h-45.52v-8.88l16.63-1.33V605.79q0-18.07-7-25.88t-19.6-7.81q-13.47,0-21.69,7.56a40.85,40.85,0,0,0-11.58,19.59v64.61l16.64,1.33v8.88Z"/><path class="cls-3" d="M1169.86,676.21a45.45,45.45,0,0,1-25-6.89,47.08,47.08,0,0,1-16.95-19.08q-6.12-12.19-6.12-28.12V616.5q0-15.81,6.12-28.22a49.78,49.78,0,0,1,16.59-19.55,40.44,40.44,0,0,1,23.32-7.14q13.58,0,23.22,5.82a38.22,38.22,0,0,1,14.81,16.38q5.14,10.56,5.15,24.85v10.41h-76.56l-.2,4.5a52.56,52.56,0,0,0,4.54,21.84,36.48,36.48,0,0,0,12.45,15.11,32.11,32.11,0,0,0,18.63,5.51,47.08,47.08,0,0,0,18.32-3.32,45.72,45.72,0,0,0,13.94-9l5.2,8.37a53.58,53.58,0,0,1-15.56,10.15Q1182.63,676.22,1169.86,676.21Zm-34.6-67.36h63.49v-3.06a39.55,39.55,0,0,0-3.72-17.41,29,29,0,0,0-10.62-12.09,30.23,30.23,0,0,0-16.59-4.39,27.71,27.71,0,0,0-15.82,4.74,35.89,35.89,0,0,0-11.48,13,48.56,48.56,0,0,0-5.46,18.63Z"/><path class="cls-3" d="M1230,674.07v-8.88l16.64-1.33V573.94L1230,572.61v-9h27.56l1,18.88a38.19,38.19,0,0,1,14-15.41q8.93-5.51,21.28-5.51,12.75,0,21.23,6.28t12.15,19.24a41.3,41.3,0,0,1,14-18.78q9.35-6.84,22.61-6.84,17.65,0,27.31,11.79t9.64,36.38v54.1l16.64,1.33V674h-45.63v-8.88l16.64-1.33v-54.3q0-20.52-7.2-29t-20-8.47q-14.4,0-22.15,9.14t-9.29,23.11v59.61l16.64,1.33v8.88h-45.63v-8.88l16.64-1.33v-54.4q0-20.1-7.3-28.73t-20-8.63q-13.49,0-21,7.15t-10.26,19v65.63l16.64,1.33v8.88Z"/><path class="cls-3" d="M1431.68,674.07v-8.88l16.63-1.33V573.94l-16.63-1.33v-9h28.88V663.86l16.64,1.33v8.88Zm15.2-141.57V514.84h13.68V532.5Z"/><path class="cls-3" d="M1538.75,676.21a69.85,69.85,0,0,1-40.32-12.14l-.1-22.66h10l1.74,16.23a38.08,38.08,0,0,0,13.16,6.63,57.08,57.08,0,0,0,15.52,2q13.88,0,21.13-6t7.24-14.29q0-7.75-6.48-13.73t-23-9.64q-19.82-4.29-28.63-11.43t-8.83-19.91a25.83,25.83,0,0,1,4.69-15.11,31.86,31.86,0,0,1,13.32-10.66,48.47,48.47,0,0,1,20.26-3.93,57.7,57.7,0,0,1,21.13,3.52,48.79,48.79,0,0,1,15.41,9.44l.51,22.66h-10l-1.43-16.33a32.36,32.36,0,0,0-10.72-6.79,40.92,40.92,0,0,0-14.9-2.4q-12.45,0-19.19,5.77t-6.73,13.42a17.46,17.46,0,0,0,2.09,8.73q2.09,3.72,8.06,6.69t17.41,5.61q20.72,4.7,30,12.71t9.29,20.77a27.49,27.49,0,0,1-10.46,22.15Q1558.46,676.21,1538.75,676.21Z"/><path class="cls-3" d="M371.13,674.08V665.2l16.64-1.32V525.16l-16.64-1.33v-9H400v68.08a40.4,40.4,0,0,1,14.54-15.72q9.13-5.61,21.49-5.61,17.46,0,26.79,10.77T472.18,606v57.88l16.64,1.32v8.88H443.3V665.2l16.64-1.32V605.8q0-18.07-7.05-25.88t-19.6-7.81q-13.47,0-21.69,7.56A41,41,0,0,0,400,599.27v64.61l16.64,1.32v8.88Z"/><path class="cls-3" d="M554.05,676.23a45.57,45.57,0,0,1-25-6.89,47.24,47.24,0,0,1-16.95-19.09Q506,638.06,506,622.13v-5.61q0-15.82,6.12-28.23a49.76,49.76,0,0,1,16.59-19.54A40.37,40.37,0,0,1,552,561.6q13.57,0,23.22,5.82A38.22,38.22,0,0,1,590,583.8q5.15,10.56,5.15,24.86v10.41H518.63l-.21,4.49A52.52,52.52,0,0,0,523,645.4a36.42,36.42,0,0,0,12.46,15.11A32.09,32.09,0,0,0,554.05,666a46.94,46.94,0,0,0,18.32-3.32,45.8,45.8,0,0,0,13.93-9l5.21,8.37a53.77,53.77,0,0,1-15.57,10.15Q566.81,676.22,554.05,676.23Zm-34.61-67.37h63.49V605.8a39.55,39.55,0,0,0-3.72-17.41,29.05,29.05,0,0,0-10.62-12.09q-6.89-4.39-16.59-4.39a27.64,27.64,0,0,0-15.82,4.75,35.77,35.77,0,0,0-11.48,13,48.79,48.79,0,0,0-5.46,18.63Z"/><path class="cls-3" d="M1676.49,622.12a46.25,46.25,0,0,0-19.25-16.57q-12.36-6-28.49-6.2l-1.3,0v-25.8h55.71v-9.9h-55.71V535.25H1615.2v28.38h-19.09v9.9h19.09v72.06q0,16,6.43,23.22l9.75-7.34q-3.93-4.86-3.93-15.88v-34h1.12a58.11,58.11,0,0,1,22.94,4.69,37.85,37.85,0,0,1,15.79,12.44,29.92,29.92,0,0,1,5.54,18.36,38.78,38.78,0,0,1-3.25,15.67,36.48,36.48,0,0,1-8.61,11.81l-20.64,1.32-.15,10.21,25,.18A52.57,52.57,0,0,0,1678,669.72a51.71,51.71,0,0,0,5.2-22.79Q1683.38,632.74,1676.49,622.12Z"/><path class="cls-3" d="M790.77,664.48,761.59,587h39.74v-8.36H758.44l-20-53.18H726.77l-20.19,53.18h-42.7V587h39.53L674,664.48l-10.92.71v8.88h36.64v-8.88l-13.06-.92L715.3,587h34.37l28.44,77.27-13.06.92v8.88h36.64v-8.88ZM718.4,578.64,730.14,547l2.14-6h.61l2.05,6,11.65,31.65Z"/><path class="cls-3" d="M333,663.94a41.52,41.52,0,0,0-6.67-18.79,46.15,46.15,0,0,0-19.49-16.28,65.42,65.42,0,0,0-24.6-5.59V535.47H323.9l1.42,22.66h9.9V525.47H216.92v32.66h10l1.32-22.66H270v87.82a64,64,0,0,0-24.9,5.78,46.85,46.85,0,0,0-19.4,16.53,42,42,0,0,0-6.55,18.3l-16.39,1.3v8.88h26.48c-.12-1.32-.27-2.63-.27-4a30.49,30.49,0,0,1,5.61-18.37,36.27,36.27,0,0,1,15.77-12A57.7,57.7,0,0,1,270,635.51v28.37l-16.64,1.32v8.88h45.53V665.2l-16.64-1.32V635.52a56.29,56.29,0,0,1,19,4.16,37.89,37.89,0,0,1,16,12.2,29.88,29.88,0,0,1,5.82,18.28c0,1.34-.07,2.65-.17,3.92H348.8V665.2Z"/><polygon class="cls-3" points="1515.72 791.94 1350.11 791.46 1184.49 791.94 1101.68 792.53 1018.88 793.54 1101.68 794.56 1184.49 795.15 1350.11 795.63 1515.72 795.15 1598.53 794.57 1681.34 793.54 1598.53 792.52 1515.72 791.94"/><polygon class="cls-3" points="701.42 791.94 535.81 791.46 370.19 791.94 287.38 792.53 204.58 793.54 287.38 794.56 370.19 795.15 535.81 795.63 701.42 795.15 784.23 794.57 867.04 793.54 784.23 792.52 701.42 791.94"/><path class="cls-3" d="M943,823.25a29.71,29.71,0,1,1,29.71-29.71A29.74,29.74,0,0,1,943,823.25Zm0-54.35a24.65,24.65,0,1,0,24.64,24.64A24.67,24.67,0,0,0,943,768.9Z"/><path class="cls-3" d="M945.49,820.72h-5.06c-19.74-18.12,19.73-36.23,0-54.35h5.06C965.22,784.49,925.76,802.6,945.49,820.72Z"/><polygon class="cls-4" points="60.8 825.06 94.78 766.21 26.83 766.21 60.8 825.06"/><circle class="cls-5" cx="1864.24" cy="795.93" r="6.93"/><rect class="cls-5" x="1775.61" y="776.54" width="38.78" height="38.78" transform="translate(1088.55 -1036.13) rotate(45)"/><line class="cls-5" x1="1822.26" y1="795.93" x2="1859.14" y2="795.93"/><path class="cls-3" d="M1141.59,56.14l-4-1.07-24.22,90.38c1.34.35,2.67.73,4,1.08Z"/><path class="cls-3" d="M1325.38,132.85l-3.58-2.07-46.15,79.93c1.2.67,2.42,1.34,3.61,2Z"/><path class="cls-3" d="M1483.05,254.52l-2.93-2.93-63.79,63.79,3,2.9Z"/><path class="cls-3" d="M1603.86,412.85l-2.07-3.59-75.54,43.61c.72,1.18,1.4,2.38,2.11,3.57Z"/><path class="cls-3" d="M1678.5,992l1.08-4-74-19.82c-.33,1.34-.65,2.68-1,4Z"/><path class="cls-3" d="M1601.79,1175.74l2.07-3.59-63.39-36.6-2,3.62Z"/><path class="cls-3" d="M1480.12,1333.41l2.93-2.93-49.76-49.76-2.89,3Z"/><path class="cls-3" d="M1321.8,1454.22l3.58-2.07-34-58.89-3.56,2.1Z"/><path class="cls-3" d="M1137.59,1529.93l4-1.07-17.21-64.23c-1.33.37-2.66.72-4,1.08Z"/><path class="cls-3" d="M940.07,1489.24v66.15h4.14v-66.15l-2.07,0Z"/><path class="cls-3" d="M742.69,1528.86l4,1.07,17.21-64.22c-1.34-.36-2.67-.71-4-1.08Z"/><path class="cls-3" d="M558.9,1452.15l3.58,2.07,34-58.86-3.56-2.1Z"/><path class="cls-3" d="M401.23,1330.48l2.93,2.93,49.72-49.73-2.89-3Z"/><path class="cls-3" d="M280.42,1172.15l2.07,3.59,63.34-36.57-2-3.62Z"/><path class="cls-3" d="M204.71,988l1.07,4,73.89-19.8c-.33-1.34-.65-2.68-1-4Z"/><path class="cls-3" d="M282.49,409.26l-2.07,3.59,75.5,43.59c.71-1.19,1.39-2.39,2.11-3.57Z"/><path class="cls-3" d="M404.16,251.59l-2.93,2.93L465,318.28l3-2.9Z"/><path class="cls-3" d="M562.48,130.78l-3.58,2.07L605,212.73l3.61-2Z"/><path class="cls-3" d="M746.69,55.07l-4,1.07,24.22,90.39c1.33-.35,2.66-.73,4-1.08Z"/><path class="cls-3" d="M944.21,123.82V29.61h-4.14v94.21l2.07,0Z"/><path class="cls-3" d="M1162.3,149.67l-3.5-1.18-8.84,26,3.51,1.14Z"/><path class="cls-3" d="M1321.17,228.56l-3.06-2.05-14.46,21.64,3.08,2Z"/><path class="cls-3" d="M1454.22,345.87l-2.44-2.77L1434,358.73c.83.91,1.64,1.83,2.46,2.75Z"/><path class="cls-3" d="M1585,1012.66l1.19-3.5-9.31-3.16c-.37,1.18-.77,2.34-1.14,3.51Z"/><path class="cls-3" d="M1506.08,1171.53l2.05-3.07-5.49-3.66c-.66,1-1.35,2-2,3.08Z"/><path class="cls-3" d="M1388.76,1304.57l2.78-2.43-2.56-2.91c-.91.82-1.84,1.62-2.76,2.45Z"/><path class="cls-3" d="M1241,1402.72l3.31-1.63-.74-1.5c-1.09.56-2.2,1.09-3.3,1.64Z"/><path class="cls-3" d="M1072.89,1459.28l3.62-.72-.09-.45c-1.2.25-2.42.46-3.62.7Z"/><path class="cls-3" d="M895.86,1470.4l3.68.24,0-.36-3.68-.23Z"/><path class="cls-3" d="M722,1435.33l3.5,1.18.29-.85c-1.17-.4-2.32-.82-3.48-1.23Z"/><path class="cls-3" d="M563.11,1356.44l3.07,2,1.47-2.21-3-2.1Z"/><path class="cls-3" d="M430.06,1239.12l2.44,2.78,3.88-3.41c-.8-.93-1.59-1.88-2.38-2.82Z"/><path class="cls-3" d="M331.92,1091.37l1.63,3.31,7.26-3.58-1.56-3.35Z"/><path class="cls-3" d="M275.36,923.25l.72,3.62,11.37-2.27c-.22-1.2-.4-2.42-.61-3.63Z"/><path class="cls-3" d="M378.2,413.47l-2.05,3.06,18.45,12.33c.7-1,1.39-2,2.1-3Z"/><path class="cls-3" d="M495.52,280.43l-2.78,2.43,16.45,18.75c.93-.8,1.88-1.59,2.81-2.38Z"/><path class="cls-3" d="M643.27,182.28,640,183.91l11.86,24,3.31-1.61Z"/><path class="cls-3" d="M811.39,125.72l-3.62.72,5.47,27.47,3.62-.69Z"/><path class="cls-3" d="M988.42,114.6l-3.68-.24-1.85,28.3,3.68.24Z"/><path class="cls-3" d="M1076.51,126.44l-3.62-.72-5.47,27.5,3.62.69Z"/><path class="cls-3" d="M1244.32,183.91l-3.31-1.63-11.86,24.06,3.31,1.61Z"/><path class="cls-3" d="M1391.54,282.86l-2.78-2.43-16.48,18.8c.93.79,1.88,1.58,2.81,2.38Z"/><path class="cls-3" d="M1508.13,416.53l-2.05-3.06-18.5,12.36c.71,1,1.4,2,2.1,3Z"/><path class="cls-3" d="M1608.2,926.87l.72-3.62L1597.44,921c-.21,1.21-.39,2.43-.61,3.63Z"/><path class="cls-3" d="M1550.73,1094.68l1.63-3.31-7.33-3.62c-.52,1.12-1,2.24-1.56,3.35Z"/><path class="cls-3" d="M1451.78,1241.9l2.44-2.78-3.94-3.45c-.79.94-1.58,1.89-2.38,2.82Z"/><path class="cls-3" d="M1318.11,1358.49l3.06-2-1.51-2.26-3,2.1Z"/><path class="cls-3" d="M1158.8,1436.51l3.5-1.18-.31-.9c-1.16.41-2.31.83-3.48,1.23Z"/><path class="cls-3" d="M984.74,1470.64l3.68-.24,0-.35-3.68.23Z"/><path class="cls-3" d="M807.77,1458.56l3.62.72.09-.47c-1.2-.24-2.41-.45-3.62-.7Z"/><path class="cls-3" d="M640,1401.09l3.31,1.63.73-1.49c-1.09-.55-2.2-1.08-3.3-1.64Z"/><path class="cls-3" d="M492.74,1302.14l2.78,2.43,2.54-2.89c-.91-.83-1.85-1.63-2.76-2.45Z"/><path class="cls-3" d="M376.15,1168.46l2.05,3.07,5.46-3.65c-.67-1-1.36-2-2-3.08Z"/><path class="cls-3" d="M298.13,1009.16l1.19,3.5,9.26-3.15c-.37-1.17-.77-2.33-1.14-3.51Z"/><path class="cls-3" d="M432.5,343.1l-2.44,2.77,17.8,15.61c.82-.92,1.63-1.84,2.46-2.75Z"/><path class="cls-3" d="M566.18,226.51l-3.07,2.05,14.44,21.62,3.08-2Z"/><path class="cls-3" d="M725.48,148.49l-3.5,1.18,8.83,26,3.51-1.14Z"/><path class="cls-3" d="M899.54,114.36l-3.68.24,1.86,28.3,3.67-.24Z"/><path class="cls-3" d="M1038.22,77.71l-3.88-.51-11.21,85.12,3.88.5Z"/><path class="cls-3" d="M1219.94,126.93l-3.61-1.5-32.47,78.39,3.62,1.48Z"/><path class="cls-3" d="M1382.74,221.51l-3.1-2.38-50.64,66,3.14,2.34Z"/><path class="cls-3" d="M1515.52,355l-2.39-3.1-64,49.11c.81,1,1.64,2,2.45,3.05Z"/><path class="cls-3" d="M1587.28,879.41l69.66,9.17.5-3.88-69.71-9.18C1587.59,876.82,1587.43,878.11,1587.28,879.41Z"/><path class="cls-3" d="M1607.71,1070.31l1.5-3.62-61.57-25.5c-.48,1.21-.92,2.44-1.4,3.65Z"/><path class="cls-3" d="M1513.13,1233.1l2.39-3.1-50.44-38.7c-.77,1-1.53,2.12-2.31,3.16Z"/><path class="cls-3" d="M1379.64,1365.87l3.1-2.38-37.1-48.35-3.05,2.45Z"/><path class="cls-3" d="M1216.33,1459.57l3.61-1.5-22.54-54.44-3.6,1.55Z"/><path class="cls-3" d="M1034.34,1507.8l3.88-.51-7.58-57.55c-1.29.17-2.58.37-3.88.54Z"/><path class="cls-3" d="M846.06,1507.29l3.88.51,7.58-57.52c-1.3-.17-2.58-.37-3.88-.54Z"/><path class="cls-3" d="M664.34,1458.07l3.61,1.5,22.53-54.39-3.59-1.55Z"/><path class="cls-3" d="M501.54,1363.49l3.1,2.38,37.05-48.28-3.05-2.45Z"/><path class="cls-3" d="M368.77,1230l2.38,3.1,50.36-38.64c-.78-1-1.54-2.11-2.31-3.16Z"/><path class="cls-3" d="M275.07,1066.69l1.5,3.62L338,1044.84c-.48-1.21-.92-2.44-1.39-3.65Z"/><path class="cls-3" d="M226.84,884.7l.51,3.88L297,879.41c-.14-1.3-.31-2.59-.44-3.89Z"/><path class="cls-3" d="M371.15,351.9l-2.38,3.1,63.93,49.06c.81-1,1.64-2,2.46-3.05Z"/><path class="cls-3" d="M504.64,219.13l-3.1,2.38,50.6,65.95,3.14-2.34Z"/><path class="cls-3" d="M668,125.43l-3.61,1.5L696.8,205.3l3.62-1.48Z"/><path class="cls-3" d="M849.94,77.2l-3.88.51,11.21,85.11,3.88-.5Z"/></svg>